<svg width="220" height="32" viewBox="0 0 220 32" fill="none" xmlns="http://www.w3.org/2000/svg">
<g clip-path="url(#clip0_233_7247)">
<path d="M8 0H12V4H8V0Z" fill="white"/>
<path d="M12 0H16V4H12V0Z" fill="white"/>
<path d="M16 0H20V4H16V0Z" fill="white"/>
<path d="M20 0H24V4H20V0Z" fill="white"/>
<path d="M24 0H28V4H24V0Z" fill="white"/>
<path d="M28 0H32V4H28V0Z" fill="white"/>
<path d="M32 0H36V4H32V0Z" fill="white"/>
<path d="M36 0H40V4H36V0Z" fill="white"/>
<path d="M40 0H44V4H40V0Z" fill="white"/>
<path d="M44 0H48V4H44V0Z" fill="white"/>
<path d="M48 0H52V4H48V0Z" fill="white"/>
<path d="M52 0H56V4H52V0Z" fill="white"/>
<path d="M56 0H60V4H56V0Z" fill="white"/>
<path d="M60 0H64V4H60V0Z" fill="white"/>
<path d="M64 0H68V4H64V0Z" fill="white"/>
<path d="M68 0H72V4H68V0Z" fill="white"/>
<path d="M72 0H76V4H72V0Z" fill="white"/>
<path d="M76 0H80V4H76V0Z" fill="white"/>
<path d="M80 0H84V4H80V0Z" fill="white"/>
<path d="M84 0H88V4H84V0Z" fill="white"/>
<path d="M88 0H92V4H88V0Z" fill="white"/>
<path d="M92 0H96V4H92V0Z" fill="white"/>
<path d="M96 0H100V4H96V0Z" fill="white"/>
<path d="M100 0H104V4H100V0Z" fill="white"/>
<path d="M104 0H108V4H104V0Z" fill="white"/>
<path d="M108 0H112V4H108V0Z" fill="white"/>
<path d="M112 0H116V4H112V0Z" fill="white"/>
<path d="M116 0H120V4H116V0Z" fill="white"/>
<path d="M120 0H124V4H120V0Z" fill="white"/>
<path d="M124 0H128V4H124V0Z" fill="white"/>
<path d="M128 0H132V4H128V0Z" fill="white"/>
<path d="M132 0H136V4H132V0Z" fill="white"/>
<path d="M136 0H140V4H136V0Z" fill="white"/>
<path d="M140 0H144V4H140V0Z" fill="white"/>
<path d="M144 0H148V4H144V0Z" fill="white"/>
<path d="M148 0H152V4H148V0Z" fill="white"/>
<path d="M152 0H156V4H152V0Z" fill="white"/>
<path d="M156 0H160V4H156V0Z" fill="white"/>
<path d="M160 0H164V4H160V0Z" fill="white"/>
<path d="M164 0H168V4H164V0Z" fill="white"/>
<path d="M168 0H172V4H168V0Z" fill="white"/>
<path d="M172 0H176V4H172V0Z" fill="white"/>
<path d="M176 0H180V4H176V0Z" fill="white"/>
<path d="M180 0H184V4H180V0Z" fill="white"/>
<path d="M184 0H188V4H184V0Z" fill="white"/>
<path d="M188 0H192V4H188V0Z" fill="white"/>
<path d="M192 0H196V4H192V0Z" fill="white"/>
<path d="M196 0H200V4H196V0Z" fill="white"/>
<path d="M200 0H204V4H200V0Z" fill="white"/>
<path d="M204 0H208V4H204V0Z" fill="white"/>
<path d="M208 0H212V4H208V0Z" fill="white"/>
<path d="M4 4H8V8H4V4Z" fill="white"/>
<path d="M212 4H216V8H212V4Z" fill="white"/>
<path d="M0 8H4V12H0V8Z" fill="white"/>
<path d="M216 8H220V12H216V8Z" fill="white"/>
<path d="M0 12H4V16H0V12Z" fill="white"/>
<path d="M216 12H220V16H216V12Z" fill="white"/>
<path d="M0 16H4V20H0V16Z" fill="white"/>
<path d="M216 16H220V20H216V16Z" fill="white"/>
<path d="M0 20H4V24H0V20Z" fill="white"/>
<path d="M216 20H220V24H216V20Z" fill="white"/>
<path d="M4 24H8V28H4V24Z" fill="white"/>
<path d="M212 24H216V28H212V24Z" fill="white"/>
<path d="M8 28H12V32H8V28Z" fill="white"/>
<path d="M12 28H16V32H12V28Z" fill="white"/>
<path d="M16 28H20V32H16V28Z" fill="white"/>
<path d="M20 28H24V32H20V28Z" fill="white"/>
<path d="M24 28H28V32H24V28Z" fill="white"/>
<path d="M28 28H32V32H28V28Z" fill="white"/>
<path d="M32 28H36V32H32V28Z" fill="white"/>
<path d="M36 28H40V32H36V28Z" fill="white"/>
<path d="M40 28H44V32H40V28Z" fill="white"/>
<path d="M44 28H48V32H44V28Z" fill="white"/>
<path d="M48 28H52V32H48V28Z" fill="white"/>
<path d="M52 28H56V32H52V28Z" fill="white"/>
<path d="M56 28H60V32H56V28Z" fill="white"/>
<path d="M60 28H64V32H60V28Z" fill="white"/>
<path d="M64 28H68V32H64V28Z" fill="white"/>
<path d="M68 28H72V32H68V28Z" fill="white"/>
<path d="M72 28H76V32H72V28Z" fill="white"/>
<path d="M76 28H80V32H76V28Z" fill="white"/>
<path d="M80 28H84V32H80V28Z" fill="white"/>
<path d="M84 28H88V32H84V28Z" fill="white"/>
<path d="M88 28H92V32H88V28Z" fill="white"/>
<path d="M92 28H96V32H92V28Z" fill="white"/>
<path d="M96 28H100V32H96V28Z" fill="white"/>
<path d="M100 28H104V32H100V28Z" fill="white"/>
<path d="M104 28H108V32H104V28Z" fill="white"/>
<path d="M108 28H112V32H108V28Z" fill="white"/>
<path d="M112 28H116V32H112V28Z" fill="white"/>
<path d="M116 28H120V32H116V28Z" fill="white"/>
<path d="M120 28H124V32H120V28Z" fill="white"/>
<path d="M124 28H128V32H124V28Z" fill="white"/>
<path d="M128 28H132V32H128V28Z" fill="white"/>
<path d="M132 28H136V32H132V28Z" fill="white"/>
<path d="M136 28H140V32H136V28Z" fill="white"/>
<path d="M140 28H144V32H140V28Z" fill="white"/>
<path d="M144 28H148V32H144V28Z" fill="white"/>
<path d="M148 28H152V32H148V28Z" fill="white"/>
<path d="M152 28H156V32H152V28Z" fill="white"/>
<path d="M156 28H160V32H156V28Z" fill="white"/>
<path d="M160 28H164V32H160V28Z" fill="white"/>
<path d="M164 28H168V32H164V28Z" fill="white"/>
<path d="M168 28H172V32H168V28Z" fill="white"/>
<path d="M172 28H176V32H172V28Z" fill="white"/>
<path d="M176 28H180V32H176V28Z" fill="white"/>
<path d="M180 28H184V32H180V28Z" fill="white"/>
<path d="M184 28H188V32H184V28Z" fill="white"/>
<path d="M188 28H192V32H188V28Z" fill="white"/>
<path d="M192 28H196V32H192V28Z" fill="white"/>
<path d="M196 28H200V32H196V28Z" fill="white"/>
<path d="M200 28H204V32H200V28Z" fill="white"/>
<path d="M204 28H208V32H204V28Z" fill="white"/>
<path d="M208 28H212V32H208V28Z" fill="white"/>
</g>
<defs>
<clipPath id="clip0_233_7247">
<rect width="220" height="32" fill="white"/>
</clipPath>
</defs>
</svg>
