<svg width="34" height="41" viewBox="0 0 34 41" fill="none" xmlns="http://www.w3.org/2000/svg">
<path d="M29.2993 31.7175V33.2559H27.7619V34.7944H6.2381V33.2559H4.70068V31.7175H29.2993Z" fill="#C29D4E"/>
<path d="M30.8365 37.8713V39.4097H3.16309V37.8713H4.7005V36.3328H29.2991V37.8713H30.8365Z" fill="#C29D4E"/>
<path d="M30.8365 37.8713H3.16309V39.4098H30.8365V37.8713Z" fill="#E8C96F"/>
<path d="M29.2993 31.7175H4.70068V33.2559H29.2993V31.7175Z" fill="#E8C96F"/>
<path d="M32.3748 13.2559V22.4867H30.8373V25.5636H29.2999V28.6405H27.7625V30.179H6.23871V28.6405H4.70129V25.5636H3.16388V22.4867H1.62646V13.2559H3.16388V10.179H4.70129V7.10208H6.23871V5.56362H9.31354V4.02516H12.3884V2.48669H21.6129V4.02516H24.6877V5.56362H27.7625V7.10208H29.2999V10.179H30.8373V13.2559H32.3748Z" fill="#CAD2D5"/>
<path d="M20.0745 10.179H13.9248V13.2559H20.0745V10.179Z" fill="#FF3314"/>
<path d="M20.0745 16.3328V19.4098H13.9248V16.3328H15.4622V14.7944H18.537V16.3328H16.9996V17.8713H18.537V16.3328H20.0745Z" fill="white"/>
<path d="M21.612 24.0252V22.4867H20.0746V20.9482H13.9249V22.4867H12.3875V24.0252H10.8501V28.6405H12.3875V30.179H21.612V28.6405H23.1494V24.0252H21.612ZM18.5372 28.6405H16.9998V27.1021H18.5372V28.6405ZM18.5372 25.5636H16.9998V24.0252H18.5372V25.5636Z" fill="white"/>
<path d="M10.8502 31.7175H7.77539V33.2559H10.8502V31.7175Z" fill="white"/>
<path d="M9.31262 37.8713H6.23779V39.4098H9.31262V37.8713Z" fill="white"/>
<path d="M29.2994 37.8713H26.2246V39.4098H29.2994V37.8713Z" fill="#C29D4E"/>
<path d="M27.7623 31.7175H24.6875V33.2559H27.7623V31.7175Z" fill="#C29D4E"/>
<path d="M9.3128 33.2559H7.77539V34.7943H9.3128V33.2559Z" fill="#E8C96F"/>
<path d="M7.77521 36.3328H6.23779V37.8713H7.77521V36.3328Z" fill="#E8C96F"/>
<path d="M23.1492 31.7175H21.6118V33.2559H23.1492V31.7175Z" fill="#C29D4E"/>
<path d="M24.6873 37.8713H23.1499V39.4098H24.6873V37.8713Z" fill="#C29D4E"/>
<path d="M29.2988 11.7175V20.9482H30.8362V11.7175H29.2988Z" fill="#EDEDED"/>
<path d="M29.2996 11.7175V8.64056H27.7622V11.7175H29.2996Z" fill="#EDEDED"/>
<path d="M27.762 8.64052V5.5636H26.2246V8.64052H27.762Z" fill="#EDEDED"/>
<path d="M27.7622 24.0252H29.2996V20.9482H27.7622V24.0252Z" fill="#EDEDED"/>
<path d="M26.2246 27.1021H27.762V24.0251H26.2246V27.1021Z" fill="#EDEDED"/>
<path d="M24.6875 28.6405H26.2249V27.1021H24.6875V28.6405Z" fill="#EDEDED"/>
<path d="M23.1499 5.56361H24.6873V4.02515H23.1499V5.56361Z" fill="#EDEDED"/>
<path d="M4.7005 16.3328H3.16309V17.8713H4.7005V16.3328Z" fill="white"/>
<path d="M12.3875 14.7944H10.8501V16.3328H12.3875V14.7944Z" fill="white"/>
<path d="M15.4622 4.02515H13.9248V5.56361H15.4622V4.02515Z" fill="white"/>
<path d="M24.6873 10.179H23.1499V11.7175H24.6873V10.179Z" fill="white"/>
<path d="M24.6873 17.8713H23.1499V19.4097H24.6873V17.8713Z" fill="white"/>
<path d="M29.2996 16.3328H27.7622V17.8713H29.2996V16.3328Z" fill="white"/>
<path d="M9.3128 25.5636H7.77539V27.1021H9.3128V25.5636Z" fill="white"/>
<path d="M15.4622 10.179H13.9248V11.7175H15.4622V10.179Z" fill="white"/>
<path d="M7.77551 5.5636V7.10206H6.2381V8.64052H4.70068V11.7174H6.2381V10.179H7.77551V8.64052H9.31293V7.10206H10.8503V5.5636H7.77551Z" fill="white"/>
<path d="M12.3875 28.6406H10.8501V30.179H12.3875V28.6406Z" fill="#1A1A1A"/>
<path d="M12.3875 22.4867H10.8501V24.0252H12.3875V22.4867Z" fill="#1A1A1A"/>
<path d="M13.9256 20.9482H12.3882V22.4867H13.9256V20.9482Z" fill="#1A1A1A"/>
<path d="M10.8502 20.9482H7.77539V22.4867H10.8502V20.9482Z" fill="#1A1A1A"/>
<path d="M7.77551 17.8713H6.2381V19.4097H4.70068V20.9482H7.77551V19.4097V17.8713Z" fill="#1A1A1A"/>
<path d="M26.2247 20.9482H23.1499V22.4867H26.2247V20.9482Z" fill="#1A1A1A"/>
<path d="M18.5379 27.1021H17.0005V28.6405H18.5379V27.1021Z" fill="#1A1A1A"/>
<path d="M18.5379 24.0251H17.0005V25.5636H18.5379V24.0251Z" fill="#1A1A1A"/>
<path d="M18.5379 16.3328H17.0005V17.8713H18.5379V16.3328Z" fill="#FF3314"/>
<path d="M27.762 19.4097V17.8713H26.2246V20.9482H29.2994V19.4097H27.762Z" fill="#1A1A1A"/>
<path d="M13.9249 16.3329H15.4623V14.7944H18.5372V16.3329H20.0746V19.4098H21.612V14.7944H23.1494V13.2559H21.612V10.179H20.0746V13.2559H13.9249V10.179H12.3875V13.2559H10.8501V14.7944H12.3875V19.4098H13.9249V16.3329Z" fill="#1A1A1A"/>
<path d="M20.0745 8.64056H13.9248V10.179H20.0745V8.64056Z" fill="#1A1A1A"/>
<path d="M20.0745 19.4098H13.9248V20.9483H20.0745V19.4098Z" fill="#1A1A1A"/>
<path d="M10.8509 24.0251H9.31348V28.6405H10.8509V24.0251Z" fill="#1A1A1A"/>
<path d="M23.1492 28.6406H21.6118V30.179H23.1492V28.6406Z" fill="#1A1A1A"/>
<path d="M23.1492 22.4867H21.6118V24.0252H23.1492V22.4867Z" fill="#1A1A1A"/>
<path d="M21.6126 20.9482H20.0752V22.4867H21.6126V20.9482Z" fill="#1A1A1A"/>
<path d="M24.6873 24.0251H23.1499V28.6405H24.6873V24.0251Z" fill="#1A1A1A"/>
<path d="M33.9124 13.2559H32.375V22.4867H33.9124V13.2559Z" fill="#1A1A1A"/>
<path d="M32.3743 10.179H30.8369V13.2559H32.3743V10.179Z" fill="#1A1A1A"/>
<path d="M30.8362 7.10211H29.2988V10.179H30.8362V7.10211Z" fill="#1A1A1A"/>
<path d="M29.2996 5.5636H27.7622V7.10206H29.2996V5.5636Z" fill="#1A1A1A"/>
<path d="M27.7623 4.02515H24.6875V5.56361H27.7623V4.02515Z" fill="#1A1A1A"/>
<path d="M24.6866 2.48669H21.6118V4.02515H24.6866V2.48669Z" fill="#1A1A1A"/>
<path d="M21.6127 0.948242H12.3882V2.4867H21.6127V0.948242Z" fill="#1A1A1A"/>
<path d="M12.3883 2.48669H9.31348V4.02515H12.3883V2.48669Z" fill="#1A1A1A"/>
<path d="M9.31262 4.02515H6.23779V5.56361H9.31262V4.02515Z" fill="#1A1A1A"/>
<path d="M6.2381 5.5636H4.70068V7.10206H6.2381V5.5636Z" fill="#1A1A1A"/>
<path d="M4.7005 7.10211H3.16309V10.179H4.7005V7.10211Z" fill="#1A1A1A"/>
<path d="M3.16388 10.179H1.62646V13.2559H3.16388V10.179Z" fill="#1A1A1A"/>
<path d="M32.3743 22.4867H30.8369V25.5636H32.3743V22.4867Z" fill="#1A1A1A"/>
<path d="M30.8362 25.5636H29.2988V28.6405H30.8362V25.5636Z" fill="#1A1A1A"/>
<path d="M27.7617 30.179H6.23791V28.6406H4.7005V30.179H3.16309V33.2559H4.7005V31.7175H29.2991V33.2559H30.8365V30.179H29.2991V28.6406H27.7617V30.179Z" fill="#1A1A1A"/>
<path d="M4.7005 25.5636H3.16309V28.6405H4.7005V25.5636Z" fill="#1A1A1A"/>
<path d="M3.16388 22.4867H1.62646V25.5636H3.16388V22.4867Z" fill="#1A1A1A"/>
<path d="M1.62579 13.2559H0.0883789V22.4867H1.62579V13.2559Z" fill="#1A1A1A"/>
<path d="M4.7005 36.3328H3.16309V37.8713H4.7005V36.3328Z" fill="#1A1A1A"/>
<path d="M3.16388 39.4098V37.8713H1.62646V40.9483H32.3748V37.8713H30.8373V39.4098H3.16388Z" fill="#1A1A1A"/>
<path d="M27.7619 34.7943H6.2381V33.2559H4.70068V36.3328H29.2993V33.2559H27.7619V34.7943Z" fill="#1A1A1A"/>
<path d="M30.8362 36.3328H29.2988V37.8713H30.8362V36.3328Z" fill="#1A1A1A"/>
</svg>
