<svg width="40" height="37" viewBox="0 0 40 37" fill="none" xmlns="http://www.w3.org/2000/svg">
<path d="M21.5393 13.8556H18.4624V16.9346H21.5393V13.8556Z" fill="#005642"/>
<path d="M9.23133 33.8692H7.69287V35.4087H9.23133V33.8692Z" fill="#C29D4E"/>
<path d="M20.0009 16.9346H18.4624V18.4741H20.0009V16.9346Z" fill="#1A1A1A"/>
<path d="M18.462 15.3951H12.3081V16.9346H18.462V15.3951Z" fill="#1A1A1A"/>
<path d="M12.3085 16.9346H10.77V18.4741H12.3085V16.9346Z" fill="#1A1A1A"/>
<path d="M10.7704 18.4741H9.23193V20.0136H10.7704V18.4741Z" fill="#1A1A1A"/>
<path d="M9.23133 20.0136H7.69287V21.5531H9.23133V20.0136Z" fill="#1A1A1A"/>
<path d="M1.53895 24.6321H0.000488281V26.1716H1.53895V24.6321Z" fill="#1A1A1A"/>
<path d="M3.07801 26.1716H1.53955V27.7111H3.07801V26.1716Z" fill="#1A1A1A"/>
<path d="M4.6161 27.7112H3.07764V29.2507H4.6161V27.7112Z" fill="#1A1A1A"/>
<path d="M6.15418 29.2507H4.61572V30.7902H6.15418V29.2507Z" fill="#1A1A1A"/>
<path d="M7.69227 30.7902H6.15381V32.3297H7.69227V30.7902Z" fill="#1A1A1A"/>
<path d="M9.23133 32.3297H7.69287V33.8692H9.23133V32.3297Z" fill="#1A1A1A"/>
<path d="M10.7704 33.8692H9.23193V35.4087H10.7704V33.8692Z" fill="#1A1A1A"/>
<path d="M12.3085 35.4087H10.77V36.9482H12.3085V35.4087Z" fill="#1A1A1A"/>
<path d="M12.3085 30.7902H10.77V32.3297H12.3085V30.7902Z" fill="#1A1A1A"/>
<path d="M10.7704 29.2507H9.23193V30.7902H10.7704V29.2507Z" fill="#1A1A1A"/>
<path d="M9.23133 27.7112H7.69287V29.2507H9.23133V27.7112Z" fill="#1A1A1A"/>
<path d="M7.69227 26.1716H6.15381V27.7111H7.69227V26.1716Z" fill="#1A1A1A"/>
<path d="M6.15418 24.6321H4.61572V26.1716H6.15418V24.6321Z" fill="#1A1A1A"/>
<path d="M4.61647 23.0927H1.53955V24.6322H4.61647V23.0927Z" fill="#1A1A1A"/>
<path d="M7.69265 21.5531H4.61572V23.0926H7.69265V21.5531Z" fill="#1A1A1A"/>
<path d="M18.4618 26.1716H16.9233V27.7111H18.4618V26.1716Z" fill="#1A1A1A"/>
<path d="M16.9237 27.7112H15.3853V29.2507H16.9237V27.7112Z" fill="#1A1A1A"/>
<path d="M15.3847 29.2507H13.8462V32.3297H15.3847V29.2507Z" fill="#1A1A1A"/>
<path d="M12.3088 32.3297V35.4087H10.7703V33.8692H9.23186V32.3297H7.6934V30.7902H6.15493V29.2507H4.61647V27.7112H3.07801V26.1716H1.53955V24.6321H4.61647V26.1716H6.15493V27.7112H7.6934V29.2507H9.23186V30.7902H10.7703V32.3297H12.3088Z" fill="#E8C96F"/>
<path d="M13.8466 32.3297H12.3081V35.4087H13.8466V32.3297Z" fill="#1A1A1A"/>
<path d="M21.5389 18.4741H20.0005V24.6322H21.5389V18.4741Z" fill="#1A1A1A"/>
<path d="M20.0003 18.4741V24.6321H18.4619V26.1716H16.9234V27.7111H15.385V29.2506H13.8465V32.3297H12.308V30.7901H10.7696V29.2506H9.23111V27.7111H7.69265V26.1716H6.15418V24.6321H4.61572V23.0926H7.69265V21.5531H9.23111V20.0136H10.7696V18.4741H12.308V16.9346H18.4619V18.4741H20.0003Z" fill="#E8C96F"/>
<path d="M20.0009 24.6321H18.4624V26.1716H20.0009V24.6321Z" fill="#1A1A1A"/>
<path d="M10.7704 32.3297H9.23193V33.8692H10.7704V32.3297Z" fill="#C29D4E"/>
<path d="M12.3085 29.2507H10.77V30.7902H12.3085V29.2507Z" fill="#C29D4E"/>
<path d="M13.8466 27.7112H12.3081V29.2507H13.8466V27.7112Z" fill="#C29D4E"/>
<path d="M10.7704 21.5531H9.23193V23.0926H10.7704V21.5531Z" fill="white"/>
<path d="M4.6161 26.1716H3.07764V27.7111H4.6161V26.1716Z" fill="white"/>
<path d="M12.3085 20.0136H10.77V21.5531H12.3085V20.0136Z" fill="white"/>
<path d="M13.8466 18.4741H12.3081V20.0136H13.8466V18.4741Z" fill="white"/>
<path d="M15.3847 26.1716H13.8462V27.7111H15.3847V26.1716Z" fill="#C29D4E"/>
<path d="M16.9237 24.6321H15.3853V26.1716H16.9237V24.6321Z" fill="#C29D4E"/>
<path d="M18.4618 23.0927H16.9233V24.6322H18.4618V23.0927Z" fill="#C29D4E"/>
<path d="M20.0009 21.5531H18.4624V23.0926H20.0009V21.5531Z" fill="#C29D4E"/>
<path d="M7.69227 33.8692H6.15381V35.4087H7.69227V33.8692Z" fill="#1A1A1A"/>
<path d="M9.23133 35.4087H7.69287V36.9482H9.23133V35.4087Z" fill="#1A1A1A"/>
<path d="M30.7687 35.4087H32.3071V33.8692H30.7687V35.4087Z" fill="#C29D4E"/>
<path d="M21.538 16.9346H19.9995V18.4741H21.538V16.9346Z" fill="#1A1A1A"/>
<path d="M27.6914 15.3951H21.5376V16.9346H27.6914V15.3951Z" fill="#1A1A1A"/>
<path d="M29.2304 16.9346H27.6919V18.4741H29.2304V16.9346Z" fill="#1A1A1A"/>
<path d="M30.7684 18.4741H29.23V20.0136H30.7684V18.4741Z" fill="#1A1A1A"/>
<path d="M32.3065 20.0136H30.7681V21.5531H32.3065V20.0136Z" fill="#1A1A1A"/>
<path d="M39.9989 24.6321H38.4604V26.1716H39.9989V24.6321Z" fill="#1A1A1A"/>
<path d="M38.4608 26.1716H36.9224V27.7111H38.4608V26.1716Z" fill="#1A1A1A"/>
<path d="M36.9218 27.7112H35.3833V29.2507H36.9218V27.7112Z" fill="#1A1A1A"/>
<path d="M35.3837 29.2507H33.8452V30.7902H35.3837V29.2507Z" fill="#1A1A1A"/>
<path d="M33.8446 30.7902H32.3062V32.3297H33.8446V30.7902Z" fill="#1A1A1A"/>
<path d="M32.3065 32.3297H30.7681V33.8692H32.3065V32.3297Z" fill="#1A1A1A"/>
<path d="M30.7684 33.8691H29.23V35.4086H30.7684V33.8691Z" fill="#1A1A1A"/>
<path d="M29.2304 35.4087H27.6919V36.9482H29.2304V35.4087Z" fill="#1A1A1A"/>
<path d="M29.2304 30.7902H27.6919V32.3297H29.2304V30.7902Z" fill="#1A1A1A"/>
<path d="M30.7684 29.2507H29.23V30.7902H30.7684V29.2507Z" fill="#1A1A1A"/>
<path d="M32.3065 27.7112H30.7681V29.2507H32.3065V27.7112Z" fill="#1A1A1A"/>
<path d="M33.8446 26.1716H32.3062V27.7111H33.8446V26.1716Z" fill="#1A1A1A"/>
<path d="M35.3837 24.6321H33.8452V26.1716H35.3837V24.6321Z" fill="#1A1A1A"/>
<path d="M38.4602 23.0927H35.3833V24.6322H38.4602V23.0927Z" fill="#1A1A1A"/>
<path d="M35.3831 21.5531H32.3062V23.0926H35.3831V21.5531Z" fill="#1A1A1A"/>
<path d="M23.0761 26.1716H21.5376V27.7111H23.0761V26.1716Z" fill="#1A1A1A"/>
<path d="M24.6141 27.7112H23.0757V29.2507H24.6141V27.7112Z" fill="#1A1A1A"/>
<path d="M26.1522 29.2507H24.6138V32.3297H26.1522V29.2507Z" fill="#1A1A1A"/>
<path d="M27.6919 32.3297V35.4087H29.2304V33.8692H30.7688V32.3297H32.3073V30.7902H33.8457V29.2507H35.3842V27.7112H36.9227V26.1716H38.4611V24.6321H35.3842V26.1716H33.8457V27.7112H32.3073V29.2507H30.7688V30.7902H29.2304V32.3297H27.6919Z" fill="#E8C96F"/>
<path d="M27.6913 32.3297H26.1528V35.4087H27.6913V32.3297Z" fill="#1A1A1A"/>
<path d="M19.9989 18.4741H18.4604V24.6322H19.9989V18.4741Z" fill="#1A1A1A"/>
<path d="M19.9995 18.4741V24.6321H21.538V26.1716H23.0764V27.7111H24.6149V29.2506H26.1534V32.3297H27.6918V30.7901H29.2303V29.2506H30.7687V27.7111H32.3072V26.1716H33.8457V24.6321H35.3841V23.0926H32.3072V21.5531H30.7687V20.0136H29.2303V18.4741H27.6918V16.9346H21.538V18.4741H19.9995Z" fill="#E8C96F"/>
<path d="M21.538 24.6321H19.9995V26.1716H21.538V24.6321Z" fill="#1A1A1A"/>
<path d="M29.2306 33.8692H30.769V32.3297H29.2306V33.8692Z" fill="#C29D4E"/>
<path d="M27.6915 30.7902H29.23V29.2507H27.6915V30.7902Z" fill="#C29D4E"/>
<path d="M26.1534 29.2507H27.6919V27.7112H26.1534V29.2507Z" fill="#C29D4E"/>
<path d="M27.6915 23.0926H29.23V21.5531H27.6915V23.0926Z" fill="white"/>
<path d="M35.3839 27.7111H36.9224V26.1716H35.3839V27.7111Z" fill="white"/>
<path d="M26.1534 21.5531H27.6919V20.0136H26.1534V21.5531Z" fill="white"/>
<path d="M24.6144 20.0136H26.1528V18.4741H24.6144V20.0136Z" fill="white"/>
<path d="M24.6144 27.7112H26.1528V26.1717H24.6144V27.7112Z" fill="#C29D4E"/>
<path d="M23.0763 26.1716H24.6147V24.6321H23.0763V26.1716Z" fill="#C29D4E"/>
<path d="M21.5382 24.6321H23.0767V23.0926H21.5382V24.6321Z" fill="#C29D4E"/>
<path d="M19.9991 23.0926H21.5376V21.5531H19.9991V23.0926Z" fill="#C29D4E"/>
<path d="M33.8456 33.8691H32.3071V35.4086H33.8456V33.8691Z" fill="#1A1A1A"/>
<path d="M32.3075 35.4087H30.769V36.9482H32.3075V35.4087Z" fill="#1A1A1A"/>
<path d="M24.6161 18.4741H23.0776V20.0136H24.6161V18.4741Z" fill="white"/>
<path d="M18.4628 12.3162H16.9243V13.8557H18.4628V12.3162Z" fill="#FF3314"/>
<path d="M15.3866 15.3952H13.8481V18.4742H15.3866V16.9347H16.9251V13.8557H15.3866V15.3952Z" fill="#FF3314"/>
<path d="M13.8475 12.3162V10.7766H16.9245V9.23714H15.386V7.69763H12.3091V13.8557H15.386V12.3162H13.8475Z" fill="#FF3314"/>
<path d="M23.077 12.3161H21.5386V13.8556H23.077V12.3161Z" fill="#FF3314"/>
<path d="M24.6161 15.3951H26.1546V18.4741H24.6161V16.9346H23.0776V13.8556H24.6161V15.3951Z" fill="#FF3314"/>
<path d="M26.1546 12.3161V10.7766H23.0776V9.23708H24.6161V7.69757H27.693V13.8556H24.6161V12.3161H26.1546Z" fill="#FF3314"/>
<path d="M21.5383 9.23712H18.4614V12.3161H21.5383V9.23712Z" fill="#FF3314"/>
<path d="M13.8466 9.23712H12.3081V10.7766H13.8466V9.23712Z" fill="white"/>
<path d="M15.3847 7.69757H13.8462V9.23708H15.3847V7.69757Z" fill="white"/>
<path d="M27.6923 7.69763H26.1538V9.23714H27.6923V7.69763Z" fill="white"/>
<path d="M26.1542 9.23712H24.6157V10.7766H26.1542V9.23712Z" fill="white"/>
<path d="M18.4618 12.3161H16.9233V13.8556H18.4618V12.3161Z" fill="#AD1714"/>
<path d="M23.077 12.3161H21.5386V13.8556H23.077V12.3161Z" fill="#AD1714"/>
<path d="M15.3847 12.3161H13.8462V13.8556H15.3847V12.3161Z" fill="#AD1714"/>
<path d="M26.1542 12.3161H24.6157V13.8556H26.1542V12.3161Z" fill="#AD1714"/>
<path d="M16.9224 15.3952V16.9347H18.4608V13.8557H16.9224V15.3952Z" fill="#1A1A1A"/>
<path d="M13.8466 15.3952H15.385V13.8557H12.3081V18.4742H13.8466V15.3952Z" fill="#1A1A1A"/>
<path d="M16.9227 16.9346H15.3843V18.4741H16.9227V16.9346Z" fill="#1A1A1A"/>
<path d="M15.3847 18.4741H13.8462V20.0136H15.3847V18.4741Z" fill="#1A1A1A"/>
<path d="M24.6151 16.9346H23.0767V18.4741H24.6151V16.9346Z" fill="#1A1A1A"/>
<path d="M26.1532 18.4741H24.6147V20.0136H26.1532V18.4741Z" fill="#1A1A1A"/>
<path d="M23.077 13.8556H21.5386V16.9346H23.077V13.8556Z" fill="#1A1A1A"/>
<path d="M16.9227 7.69763H15.3843V9.23714H16.9227V7.69763Z" fill="#1A1A1A"/>
<path d="M12.3075 7.69757H10.769V13.8556H12.3075V7.69757Z" fill="#1A1A1A"/>
<path d="M15.385 7.69759V6.15808H12.3081V7.69759H15.385Z" fill="#1A1A1A"/>
<path d="M24.6151 7.69763H23.0767V9.23714H24.6151V7.69763Z" fill="#1A1A1A"/>
<path d="M24.6147 13.8557V15.3952H26.1532V18.4742H27.6917V13.8557H24.6147Z" fill="#1A1A1A"/>
<path d="M13.8462 10.7766V12.3161H15.3847V13.8556H16.9231V12.3161H18.4616V9.23706H16.9231V10.7766H13.8462Z" fill="#1A1A1A"/>
<path d="M27.6919 7.69763V13.8557H29.2304V7.69763H27.6919Z" fill="#1A1A1A"/>
<path d="M27.6917 7.69759V6.15808H24.6147V7.69759H27.6917Z" fill="#1A1A1A"/>
<path d="M21.5386 12.3161H23.077V13.8556H24.6155V12.3161H26.154V10.7766H23.077V9.23706H21.5386V12.3161Z" fill="#1A1A1A"/>
<path d="M21.5383 9.23708V7.69757H18.4614V9.23708H21.5383Z" fill="#1A1A1A"/>
<path d="M18.4614 12.3161V13.8556H21.5383V12.3161H18.4614Z" fill="#1A1A1A"/>
<path d="M16.9238 3.07906V7.69758H15.3853V6.15807H12.3084V7.69758H10.7699V13.8556H12.3084V15.3951V16.9346H10.7699V18.4741H9.23148V15.3951H4.6161V12.3161H6.15456V10.7766H4.6161V9.23709H3.07764V6.15807H4.6161V4.61857H3.07764V1.53955H6.15456V3.07906H7.69302V1.53955H10.7699V4.61857H13.8469V3.07906H16.9238Z" fill="#019472"/>
<path d="M23.0776 3.07906V7.69759H24.6161V6.15808H27.693V7.69759H29.2315V13.8556H27.693V15.3951H29.2315V16.9346H30.7699V15.3951H35.3853V12.3161H33.8469V10.7766H35.3853V9.23709H36.9238V6.15808H35.3853V4.61857H36.9238V1.53955H33.8469V3.07906H32.3084V1.53955H29.2315V4.61857H26.1546V3.07906H23.0776Z" fill="#019472"/>
<path d="M29.2313 13.8556H27.6929V16.9346H29.2313V13.8556Z" fill="#005642"/>
<path d="M30.7694 15.3951H29.231V18.4741H30.7694V15.3951Z" fill="#005642"/>
<path d="M10.7704 16.9346H9.23193V18.4741H10.7704V16.9346Z" fill="#005642"/>
<path d="M10.7704 9.23706H9.23193V10.7766H10.7704V9.23706Z" fill="#005642"/>
<path d="M9.23133 7.69757H7.69287V9.23708H9.23133V7.69757Z" fill="#005642"/>
<path d="M7.69227 6.15808H6.15381V7.69759H7.69227V6.15808Z" fill="#005642"/>
<path d="M29.2316 10.7766H30.77V9.2371H29.2316V10.7766Z" fill="#005642"/>
<path d="M30.7696 9.23706H32.3081V7.69755H30.7696V9.23706Z" fill="#005642"/>
<path d="M32.3087 7.69757H33.8472V6.15806H32.3087V7.69757Z" fill="#005642"/>
<path d="M35.385 23.0927H32.3081V24.6322H35.385V23.0927Z" fill="#C29D4E"/>
<path d="M32.3085 21.5531H30.77V23.0926H32.3085V21.5531Z" fill="#C29D4E"/>
<path d="M30.7694 20.0136H29.231V21.5531H30.7694V20.0136Z" fill="#C29D4E"/>
<path d="M29.2313 18.4741H27.6929V20.0136H29.2313V18.4741Z" fill="#C29D4E"/>
<path d="M9.23133 21.5531H7.69287V23.0926H9.23133V21.5531Z" fill="white"/>
<path d="M6.15418 6.15808H4.61572V7.69759H6.15418V6.15808Z" fill="white"/>
<path d="M7.69227 7.69757H6.15381V9.23708H7.69227V7.69757Z" fill="white"/>
<path d="M32.3085 6.15808H30.77V7.69759H32.3085V6.15808Z" fill="white"/>
<path d="M33.8466 4.61853H32.3081V6.15804H33.8466V4.61853Z" fill="white"/>
<path d="M7.69287 6.10352e-05V1.53957H10.7698V6.10352e-05H7.69287Z" fill="#1A1A1A"/>
<path d="M1.53955 6.10352e-05V4.61859H3.07801V1.53957H6.15494V6.10352e-05H1.53955Z" fill="#1A1A1A"/>
<path d="M7.69325 1.53955H6.15479V3.07906H7.69325V1.53955Z" fill="#1A1A1A"/>
<path d="M1.53955 9.2371H3.07801V6.15808H1.53955V9.2371Z" fill="#1A1A1A"/>
<path d="M3.07861 15.3952H4.61707V12.3162H3.07861V15.3952Z" fill="#1A1A1A"/>
<path d="M7.69265 16.9346V18.4742H9.23111V15.3951H4.61572V16.9346H7.69265Z" fill="#1A1A1A"/>
<path d="M6.15418 10.7766H4.61572V12.3161H6.15418V10.7766Z" fill="#1A1A1A"/>
<path d="M13.8472 1.53955V3.07906H16.9241V1.53955H13.8472Z" fill="#1A1A1A"/>
<path d="M16.9243 3.0791V7.69763H18.4628V3.0791H16.9243Z" fill="#1A1A1A"/>
<path d="M4.61707 4.61859H3.07861V6.1581H4.61707V4.61859Z" fill="#1A1A1A"/>
<path d="M4.61707 9.23712H3.07861V10.7766H4.61707V9.23712Z" fill="#1A1A1A"/>
<path d="M12.3095 1.53955H10.771V4.61857H13.8479V3.07906H12.3095V1.53955Z" fill="#1A1A1A"/>
<path d="M29.231 6.10352e-05V1.53957H32.3079V6.10352e-05H29.231Z" fill="#1A1A1A"/>
<path d="M38.4626 6.10352e-05H33.8472V1.53957H36.9241V4.61859H38.4626V6.10352e-05Z" fill="#1A1A1A"/>
<path d="M33.8466 1.53955H32.3081V3.07906H33.8466V1.53955Z" fill="#1A1A1A"/>
<path d="M38.4618 9.2371V6.15808H36.9233V9.2371H38.4618Z" fill="#1A1A1A"/>
<path d="M36.9227 15.3952V12.3162H35.3843V15.3952H36.9227Z" fill="#1A1A1A"/>
<path d="M30.77 18.4742H32.3085V16.9346H35.3854V15.3951H30.77V18.4742Z" fill="#1A1A1A"/>
<path d="M35.3856 10.7766H33.8472V12.3161H35.3856V10.7766Z" fill="#1A1A1A"/>
<path d="M23.0776 1.53955V3.07906H26.1546V1.53955H23.0776Z" fill="#1A1A1A"/>
<path d="M21.5386 7.69763H23.077V3.0791H21.5386V7.69763Z" fill="#1A1A1A"/>
<path d="M36.9227 4.61859H35.3843V6.1581H36.9227V4.61859Z" fill="#1A1A1A"/>
<path d="M36.9227 9.23712H35.3843V10.7766H36.9227V9.23712Z" fill="#1A1A1A"/>
<path d="M27.6932 3.07906H26.1548V4.61857H29.2317V1.53955H27.6932V3.07906Z" fill="#1A1A1A"/>
</svg>
