<svg width="13" height="17" viewBox="0 0 13 17" fill="none" xmlns="http://www.w3.org/2000/svg">
<path d="M6.61629 1.05176H6.06494V1.60348H6.61629V1.05176Z" fill="#E8C96F"/>
<path d="M6.61629 14.8447H6.06494V15.9482H6.61629V14.8447Z" fill="#954F2B"/>
<path d="M6.06502 2.70679H5.51367V3.81024H6.06502V2.70679Z" fill="#1A1A1A"/>
<path d="M5.51375 3.8103H4.9624V4.91375H5.51375V3.8103Z" fill="#1A1A1A"/>
<path d="M6.61629 1.60352H6.06494V2.70696H6.61629V1.60352Z" fill="#1A1A1A"/>
<path d="M4.96297 4.91382H4.41162V6.01727H4.96297V4.91382Z" fill="#1A1A1A"/>
<path d="M4.41072 6.01733H3.85938V6.56906H4.41072V6.01733Z" fill="#1A1A1A"/>
<path d="M3.85945 6.56885H3.30811V7.12057H3.85945V6.56885Z" fill="#1A1A1A"/>
<path d="M5.51342 7.12061V7.67233H4.96207V8.22405H4.41072V7.67233H3.85938V7.12061H5.51342Z" fill="#1A1A1A"/>
<path d="M4.41072 8.22412H3.85938V8.77585H4.41072V8.22412Z" fill="#1A1A1A"/>
<path d="M3.85945 8.77588H3.30811V9.3276H3.85945V8.77588Z" fill="#1A1A1A"/>
<path d="M3.3077 9.32764H2.75635V9.87936H3.3077V9.32764Z" fill="#1A1A1A"/>
<path d="M2.75643 9.87939H2.20508V10.4311H2.75643V9.87939Z" fill="#1A1A1A"/>
<path d="M3.85913 10.9827V11.5344H3.30778V12.0861H2.75643V11.5344H2.20508V10.9827H3.85913Z" fill="#1A1A1A"/>
<path d="M2.75643 12.0862H2.20508V12.6379H2.75643V12.0862Z" fill="#1A1A1A"/>
<path d="M2.20565 12.6379H1.6543V13.1897H2.20565V12.6379Z" fill="#1A1A1A"/>
<path d="M1.65438 13.1897H1.10303V13.7414H1.65438V13.1897Z" fill="#1A1A1A"/>
<path d="M1.1036 13.7415H0.552246V14.2932H1.1036V13.7415Z" fill="#1A1A1A"/>
<path d="M0.551349 14.2932H0V14.8449H0.551349V14.2932Z" fill="#1A1A1A"/>
<path d="M2.20565 10.4309H1.6543V10.9826H2.20565V10.4309Z" fill="#1A1A1A"/>
<path d="M7.16707 2.70679H6.61572V3.81024H7.16707V2.70679Z" fill="#1A1A1A"/>
<path d="M7.71883 3.8103H7.16748V4.91375H7.71883V3.8103Z" fill="#1A1A1A"/>
<path d="M8.2701 4.91382H7.71875V6.01727H8.2701V4.91382Z" fill="#1A1A1A"/>
<path d="M8.82235 6.01733H8.271V6.56906H8.82235V6.01733Z" fill="#1A1A1A"/>
<path d="M9.37313 6.56885H8.82178V7.12057H9.37313V6.56885Z" fill="#1A1A1A"/>
<path d="M8.82153 7.12061V7.67233H8.27018V8.22405H7.71883V7.67233H7.16748V7.12061H8.82153Z" fill="#1A1A1A"/>
<path d="M8.82235 8.22412H8.271V8.77585H8.82235V8.22412Z" fill="#1A1A1A"/>
<path d="M9.37313 8.77588H8.82178V9.3276H9.37313V8.77588Z" fill="#1A1A1A"/>
<path d="M9.9244 9.32764H9.37305V9.87936H9.9244V9.32764Z" fill="#1A1A1A"/>
<path d="M10.4757 9.87939H9.92432V10.4311H10.4757V9.87939Z" fill="#1A1A1A"/>
<path d="M10.4757 12.0862H9.92432V12.6379H10.4757V12.0862Z" fill="#1A1A1A"/>
<path d="M11.0264 12.6379H10.4751V13.1897H11.0264V12.6379Z" fill="#1A1A1A"/>
<path d="M11.5782 13.1897H11.0269V13.7414H11.5782V13.1897Z" fill="#1A1A1A"/>
<path d="M12.1295 13.7415H11.5781V14.2932H12.1295V13.7415Z" fill="#1A1A1A"/>
<path d="M12.6817 14.2932H12.1304V14.8449H12.6817V14.2932Z" fill="#1A1A1A"/>
<path d="M11.0264 10.4309H10.4751V10.9826H11.0264V10.4309Z" fill="#1A1A1A"/>
<path d="M12.1306 14.293V14.8447H9.92518H7.71979H4.96304H2.75764H0.552246V14.293H1.1036V13.7413H1.65494V13.1895H2.20629V12.6378H2.75764V12.0861H3.30899V11.5344H3.86034V10.9826H2.20629V10.4309H2.75764V9.8792H3.30899V9.32748H3.86034V8.77575H4.41169V8.22403H4.96304V7.6723H5.51439V7.12058H3.86034V6.56886H4.41169V6.01713H4.96304V4.91368H5.51439V3.81024H6.06574V2.70679H6.61709V3.81024H7.16844V4.91368H7.71979V6.01713H8.27113V6.56886H8.82248V7.12058H7.16844V7.6723H7.71979V8.22403H8.27113V8.77575H8.82248V9.32748H9.37383V9.8792H9.92518V10.4309H10.4765V10.9826H8.82248V11.5344H9.37383V12.0861H9.92518V12.6378H10.4765V13.1895H11.0279V13.7413H11.5792V14.293H12.1306Z" fill="#019472"/>
<path d="M10.4758 10.9827V11.5344H9.92448V12.0861H9.37313V11.5344H8.82178V10.9827H10.4758Z" fill="#1A1A1A"/>
<path d="M6.61629 0.5H6.06494V1.05172H6.61629V0.5Z" fill="#1A1A1A"/>
<path d="M6.06502 1.05176H5.51367V1.60348H6.06502V1.05176Z" fill="#1A1A1A"/>
<path d="M7.16707 1.05176H6.61572V1.60348H7.16707V1.05176Z" fill="#1A1A1A"/>
<path d="M8.82153 6.56885H7.16748V7.12057H8.82153V6.56885Z" fill="#005642"/>
<path d="M10.4758 10.4309H8.82178V10.9826H10.4758V10.4309Z" fill="#005642"/>
<path d="M11.5782 13.7415H11.0269V14.2932H11.5782V13.7415Z" fill="#005642"/>
<path d="M9.9244 13.7415H9.37305V14.2932H9.9244V13.7415Z" fill="#005642"/>
<path d="M8.82235 13.7415H8.271V14.2932H8.82235V13.7415Z" fill="#005642"/>
<path d="M7.71883 13.7415H7.16748V14.2932H7.71883V13.7415Z" fill="#005642"/>
<path d="M6.61629 13.7415H6.06494V14.2932H6.61629V13.7415Z" fill="#005642"/>
<path d="M5.51375 13.7415H4.9624V14.2932H5.51375V13.7415Z" fill="#005642"/>
<path d="M4.41072 13.7415H3.85938V14.2932H4.41072V13.7415Z" fill="#005642"/>
<path d="M3.3077 13.7415H2.75635V14.2932H3.3077V13.7415Z" fill="#005642"/>
<path d="M2.20565 13.7415H1.6543V14.2932H2.20565V13.7415Z" fill="#005642"/>
<path d="M12.1296 14.2932H11.0269V14.8449H12.1296V14.2932Z" fill="#005642"/>
<path d="M9.92448 14.2932H8.82178V14.8449H9.92448V14.2932Z" fill="#005642"/>
<path d="M7.71842 14.2932H6.61572V14.8449H7.71842V14.2932Z" fill="#005642"/>
<path d="M6.0651 14.2932H4.9624V14.8449H6.0651V14.2932Z" fill="#005642"/>
<path d="M3.85905 14.2932H2.75635V14.8449H3.85905V14.2932Z" fill="#005642"/>
<path d="M1.65494 14.2932H0.552246V14.8449H1.65494V14.2932Z" fill="#005642"/>
<path d="M10.4757 12.6379H9.92432V13.1897H10.4757V12.6379Z" fill="#005642"/>
<path d="M11.0264 13.1897H10.4751V13.7414H11.0264V13.1897Z" fill="#005642"/>
<path d="M9.37313 11.5344H8.82178V12.0861H9.37313V11.5344Z" fill="#005642"/>
<path d="M9.9244 12.0862H9.37305V12.6379H9.9244V12.0862Z" fill="#005642"/>
<path d="M8.82235 10.9827H8.271V11.5344H8.82235V10.9827Z" fill="#005642"/>
<path d="M8.2701 10.4309H7.71875V10.9826H8.2701V10.4309Z" fill="#005642"/>
<path d="M7.71883 10.9827H7.16748V11.5344H7.71883V10.9827Z" fill="#005642"/>
<path d="M7.16707 10.4309H6.61572V10.9826H7.16707V10.4309Z" fill="#005642"/>
<path d="M6.61629 10.9827H6.06494V11.5344H6.61629V10.9827Z" fill="#005642"/>
<path d="M6.06502 10.4309H5.51367V10.9826H6.06502V10.4309Z" fill="#005642"/>
<path d="M5.51375 10.9827H4.9624V11.5344H5.51375V10.9827Z" fill="#005642"/>
<path d="M11.0264 13.7415H10.4751V14.2932H11.0264V13.7415Z" fill="#005642"/>
<path d="M4.96297 10.4309H4.41162V10.9826H4.96297V10.4309Z" fill="#005642"/>
<path d="M4.41072 10.9827H3.85938V11.5344H4.41072V10.9827Z" fill="#005642"/>
<path d="M3.85945 10.4309H3.30811V10.9826H3.85945V10.4309Z" fill="#005642"/>
<path d="M6.61629 6.56885H6.06494V7.12057H6.61629V6.56885Z" fill="#005642"/>
<path d="M6.06502 7.12061H5.51367V7.67233H6.06502V7.12061Z" fill="#005642"/>
<path d="M5.51375 6.56885H4.9624V7.12057H5.51375V6.56885Z" fill="#005642"/>
<path d="M9.9244 9.87939H9.37305V10.4311H9.9244V9.87939Z" fill="#005642"/>
<path d="M9.37313 9.32764H8.82178V9.87936H9.37313V9.32764Z" fill="#005642"/>
<path d="M8.82235 8.77588H8.271V9.3276H8.82235V8.77588Z" fill="#005642"/>
<path d="M8.2701 8.22412H7.71875V8.77585H8.2701V8.22412Z" fill="#005642"/>
<path d="M7.71883 7.67236H7.16748V8.22409H7.71883V7.67236Z" fill="#005642"/>
<path d="M7.16707 7.12061H6.61572V7.67233H7.16707V7.12061Z" fill="#005642"/>
<path d="M8.2701 6.01733H7.71875V6.56906H8.2701V6.01733Z" fill="#005642"/>
<path d="M7.71883 4.91382H7.16748V6.01727H7.71883V4.91382Z" fill="#005642"/>
<path d="M7.16707 3.8103H6.61572V4.91375H7.16707V3.8103Z" fill="#005642"/>
<path d="M1.65494 14.8447H0.552246V15.3965H1.65494V14.8447Z" fill="#1A1A1A"/>
<path d="M2.757 14.2932H1.6543V14.8449H2.757V14.2932Z" fill="#1A1A1A"/>
<path d="M3.85905 14.8447H2.75635V15.3965H3.85905V14.8447Z" fill="#1A1A1A"/>
<path d="M8.82145 14.2932H7.71875V14.8449H8.82145V14.2932Z" fill="#1A1A1A"/>
<path d="M9.92448 14.8447H8.82178V15.3965H9.92448V14.8447Z" fill="#1A1A1A"/>
<path d="M11.027 14.2932H9.92432V14.8449H11.027V14.2932Z" fill="#1A1A1A"/>
<path d="M12.1296 14.8447H11.0269V15.3965H12.1296V14.8447Z" fill="#1A1A1A"/>
<path d="M4.96207 14.2932H3.85938V14.8449H4.96207V14.2932Z" fill="#1A1A1A"/>
<path d="M5.51375 14.8447H4.9624V15.3965H5.51375V14.8447Z" fill="#1A1A1A"/>
<path d="M7.71883 14.8447H7.16748V15.3965H7.71883V14.8447Z" fill="#1A1A1A"/>
<path d="M6.61629 14.2932H6.06494V14.8449H6.61629V14.2932Z" fill="#1A1A1A"/>
<path d="M7.16772 15.9482H5.51367V16.5H7.16772V15.9482Z" fill="#1A1A1A"/>
<path d="M6.06502 14.8447H5.51367V15.9482H6.06502V14.8447Z" fill="#1A1A1A"/>
<path d="M7.16707 14.8447H6.61572V15.9482H7.16707V14.8447Z" fill="#1A1A1A"/>
<path d="M7.16707 3.8103H6.61572V4.36203H7.16707V3.8103Z" fill="#CAD2D5"/>
<path d="M9.37313 9.32764H8.82178V9.87936H9.37313V9.32764Z" fill="#CAD2D5"/>
<path d="M5.51375 7.67236H4.9624V8.22409H5.51375V7.67236Z" fill="white"/>
<path d="M6.61637 8.22412H5.51367V8.77585H6.61637V8.22412Z" fill="white"/>
<path d="M7.71842 8.77588H6.61572V9.3276H7.71842V8.77588Z" fill="white"/>
<path d="M8.82145 9.32764H7.71875V9.87936H8.82145V9.32764Z" fill="white"/>
<path d="M9.37313 11.5344H8.82178V12.0861H9.37313V11.5344Z" fill="#CAD2D5"/>
<path d="M8.82145 12.0862H7.71875V12.6379H8.82145V12.0862Z" fill="white"/>
<path d="M3.3077 12.0862H2.75635V12.6379H3.3077V12.0862Z" fill="white"/>
<path d="M7.71842 12.6379H6.61572V13.1897H7.71842V12.6379Z" fill="white"/>
<path d="M6.61702 13.1897H4.41162V13.7414H6.61702V13.1897Z" fill="white"/>
<path d="M4.4108 12.6379H3.30811V13.1897H4.4108V12.6379Z" fill="white"/>
<path d="M6.61637 4.36206H5.51367V4.91378H6.61637V4.36206Z" fill="white"/>
<path d="M5.51375 9.32764H4.9624V9.87936H5.51375V9.32764Z" fill="#E8C96F"/>
<path d="M5.51375 8.77588H4.9624V9.3276H5.51375V8.77588Z" fill="#1A1A1A"/>
<path d="M4.96151 9.32764H4.41016V9.87936H4.96151V9.32764Z" fill="#1A1A1A"/>
<path d="M5.51375 9.87939H4.9624V10.4311H5.51375V9.87939Z" fill="#1A1A1A"/>
<path d="M6.06453 9.32764H5.51318V9.87936H6.06453V9.32764Z" fill="#1A1A1A"/>
<path d="M10.4762 12.6379H9.9248V13.1897H10.4762V12.6379Z" fill="#E8C96F"/>
<path d="M10.4762 12.0862H9.9248V12.6379H10.4762V12.0862Z" fill="#1A1A1A"/>
<path d="M9.92391 12.6379H9.37256V13.1897H9.92391V12.6379Z" fill="#1A1A1A"/>
<path d="M10.4762 13.1897H9.9248V13.7414H10.4762V13.1897Z" fill="#1A1A1A"/>
<path d="M11.0269 12.6379H10.4756V13.1897H11.0269V12.6379Z" fill="#1A1A1A"/>
<path d="M7.72078 11.5344H7.16943V12.0861H7.72078V11.5344Z" fill="#FF3314"/>
<path d="M7.72078 10.9827H7.16943V11.5344H7.72078V10.9827Z" fill="#1A1A1A"/>
<path d="M7.16854 11.5344H6.61719V12.0861H7.16854V11.5344Z" fill="#1A1A1A"/>
<path d="M7.72078 12.0862H7.16943V12.6379H7.72078V12.0862Z" fill="#1A1A1A"/>
<path d="M8.27156 11.5344H7.72021V12.0861H8.27156V11.5344Z" fill="#1A1A1A"/>
<path d="M4.41219 12.6379H3.86084V13.1897H4.41219V12.6379Z" fill="#FF3314"/>
<path d="M4.41219 12.0862H3.86084V12.6379H4.41219V12.0862Z" fill="#1A1A1A"/>
<path d="M3.85994 12.6379H3.30859V13.1897H3.85994V12.6379Z" fill="#1A1A1A"/>
<path d="M4.41219 13.1897H3.86084V13.7414H4.41219V13.1897Z" fill="#1A1A1A"/>
<path d="M4.96297 12.6379H4.41162V13.1897H4.96297V12.6379Z" fill="#1A1A1A"/>
<path d="M7.16707 5.46558H6.61572V6.0173H7.16707V5.46558Z" fill="#FF3314"/>
<path d="M7.16707 4.91382H6.61572V5.46554H7.16707V4.91382Z" fill="#1A1A1A"/>
<path d="M6.6158 5.46558H6.06445V6.0173H6.6158V5.46558Z" fill="#1A1A1A"/>
<path d="M7.16707 6.01733H6.61572V6.56906H7.16707V6.01733Z" fill="#1A1A1A"/>
<path d="M7.71785 5.46558H7.1665V6.0173H7.71785V5.46558Z" fill="#1A1A1A"/>
</svg>
