<svg width="16" height="15" viewBox="0 0 16 15" fill="none" xmlns="http://www.w3.org/2000/svg">
<path d="M8.61553 5.65259H7.38477V6.88419H8.61553V5.65259Z" fill="#005642"/>
<path d="M3.69253 13.658H3.07715V14.2738H3.69253V13.658Z" fill="#C29D4E"/>
<path d="M8.00015 6.88403H7.38477V7.49983H8.00015V6.88403Z" fill="#1A1A1A"/>
<path d="M7.38438 6.26831H4.92285V6.88411H7.38438V6.26831Z" fill="#1A1A1A"/>
<path d="M4.923 6.88403H4.30762V7.49983H4.923V6.88403Z" fill="#1A1A1A"/>
<path d="M4.30776 7.5H3.69238V8.1158H4.30776V7.5Z" fill="#1A1A1A"/>
<path d="M3.69253 8.11572H3.07715V8.73152H3.69253V8.11572Z" fill="#1A1A1A"/>
<path d="M0.615381 9.96313H0V10.5789H0.615381V9.96313Z" fill="#1A1A1A"/>
<path d="M1.23159 10.5789H0.616211V11.1947H1.23159V10.5789Z" fill="#1A1A1A"/>
<path d="M1.84683 11.1946H1.23145V11.8104H1.84683V11.1946Z" fill="#1A1A1A"/>
<path d="M2.46206 11.8105H1.84668V12.4263H2.46206V11.8105Z" fill="#1A1A1A"/>
<path d="M3.0773 12.4263H2.46191V13.0421H3.0773V12.4263Z" fill="#1A1A1A"/>
<path d="M3.69253 13.042H3.07715V13.6578H3.69253V13.042Z" fill="#1A1A1A"/>
<path d="M4.30776 13.658H3.69238V14.2738H4.30776V13.658Z" fill="#1A1A1A"/>
<path d="M4.923 14.2737H4.30762V14.8895H4.923V14.2737Z" fill="#1A1A1A"/>
<path d="M4.923 12.4263H4.30762V13.0421H4.923V12.4263Z" fill="#1A1A1A"/>
<path d="M4.30776 11.8105H3.69238V12.4263H4.30776V11.8105Z" fill="#1A1A1A"/>
<path d="M3.69253 11.1946H3.07715V11.8104H3.69253V11.1946Z" fill="#1A1A1A"/>
<path d="M3.0773 10.5789H2.46191V11.1947H3.0773V10.5789Z" fill="#1A1A1A"/>
<path d="M2.46206 9.96313H1.84668V10.5789H2.46206V9.96313Z" fill="#1A1A1A"/>
<path d="M1.84697 9.34741H0.616211V9.96321H1.84697V9.34741Z" fill="#1A1A1A"/>
<path d="M3.07744 8.73145H1.84668V9.34725H3.07744V8.73145Z" fill="#1A1A1A"/>
<path d="M7.38491 10.5789H6.76953V11.1947H7.38491V10.5789Z" fill="#1A1A1A"/>
<path d="M6.76968 11.1946H6.1543V11.8104H6.76968V11.1946Z" fill="#1A1A1A"/>
<path d="M6.15347 11.8105H5.53809V13.0421H6.15347V11.8105Z" fill="#1A1A1A"/>
<path d="M4.92388 13.0421V14.2737H4.3085V13.6579H3.69312V13.0421H3.07773V12.4263H2.46235V11.8105H1.84697V11.1947H1.23159V10.5789H0.616211V9.96313H1.84697V10.5789H2.46235V11.1947H3.07773V11.8105H3.69312V12.4263H4.3085V13.0421H4.92388Z" fill="#E8C96F"/>
<path d="M5.53823 13.042H4.92285V14.2736H5.53823V13.042Z" fill="#1A1A1A"/>
<path d="M8.61538 7.5H8V9.9632H8.61538V7.5Z" fill="#1A1A1A"/>
<path d="M8.00049 7.49983V9.96303H7.38511V10.5788H6.76973V11.1946H6.15435V11.8104H5.53897V13.042H4.92359V12.4262H4.3082V11.8104H3.69282V11.1946H3.07744V10.5788H2.46206V9.96303H1.84668V9.34723H3.07744V8.73143H3.69282V8.11563H4.3082V7.49983H4.92359V6.88403H7.38511V7.49983H8.00049Z" fill="#E8C96F"/>
<path d="M8.00015 9.96313H7.38477V10.5789H8.00015V9.96313Z" fill="#1A1A1A"/>
<path d="M4.30776 13.042H3.69238V13.6578H4.30776V13.042Z" fill="#C29D4E"/>
<path d="M4.923 11.8105H4.30762V12.4263H4.923V11.8105Z" fill="#C29D4E"/>
<path d="M5.53823 11.1946H4.92285V11.8104H5.53823V11.1946Z" fill="#C29D4E"/>
<path d="M4.30776 8.73145H3.69238V9.34725H4.30776V8.73145Z" fill="white"/>
<path d="M1.84683 10.5789H1.23145V11.1947H1.84683V10.5789Z" fill="white"/>
<path d="M4.923 8.11572H4.30762V8.73152H4.923V8.11572Z" fill="white"/>
<path d="M5.53823 7.5H4.92285V8.1158H5.53823V7.5Z" fill="white"/>
<path d="M6.15347 10.5789H5.53809V11.1947H6.15347V10.5789Z" fill="#C29D4E"/>
<path d="M6.76968 9.96313H6.1543V10.5789H6.76968V9.96313Z" fill="#C29D4E"/>
<path d="M7.38491 9.34741H6.76953V9.96321H7.38491V9.34741Z" fill="#C29D4E"/>
<path d="M8.00015 8.73145H7.38477V9.34725H8.00015V8.73145Z" fill="#C29D4E"/>
<path d="M3.0773 13.658H2.46191V14.2738H3.0773V13.658Z" fill="#1A1A1A"/>
<path d="M3.69253 14.2737H3.07715V14.8895H3.69253V14.2737Z" fill="#1A1A1A"/>
<path d="M12.3075 14.2737H12.9229V13.6579H12.3075V14.2737Z" fill="#C29D4E"/>
<path d="M8.61538 6.88403H8V7.49983H8.61538V6.88403Z" fill="#1A1A1A"/>
<path d="M11.0768 6.26831H8.61523V6.88411H11.0768V6.26831Z" fill="#1A1A1A"/>
<path d="M11.6916 6.88403H11.0762V7.49983H11.6916V6.88403Z" fill="#1A1A1A"/>
<path d="M12.3068 7.5H11.6914V8.1158H12.3068V7.5Z" fill="#1A1A1A"/>
<path d="M12.922 8.11572H12.3066V8.73152H12.922V8.11572Z" fill="#1A1A1A"/>
<path d="M15.9992 9.96313H15.3838V10.5789H15.9992V9.96313Z" fill="#1A1A1A"/>
<path d="M15.3839 10.5789H14.7686V11.1947H15.3839V10.5789Z" fill="#1A1A1A"/>
<path d="M14.7687 11.1948H14.1533V11.8106H14.7687V11.1948Z" fill="#1A1A1A"/>
<path d="M14.1535 11.8105H13.5381V12.4263H14.1535V11.8105Z" fill="#1A1A1A"/>
<path d="M13.5373 12.4263H12.9219V13.0421H13.5373V12.4263Z" fill="#1A1A1A"/>
<path d="M12.922 13.0422H12.3066V13.658H12.922V13.0422Z" fill="#1A1A1A"/>
<path d="M12.3068 13.658H11.6914V14.2738H12.3068V13.658Z" fill="#1A1A1A"/>
<path d="M11.6916 14.2737H11.0762V14.8895H11.6916V14.2737Z" fill="#1A1A1A"/>
<path d="M11.6916 12.4263H11.0762V13.0421H11.6916V12.4263Z" fill="#1A1A1A"/>
<path d="M12.3068 11.8105H11.6914V12.4263H12.3068V11.8105Z" fill="#1A1A1A"/>
<path d="M12.922 11.1948H12.3066V11.8106H12.922V11.1948Z" fill="#1A1A1A"/>
<path d="M13.5373 10.5789H12.9219V11.1947H13.5373V10.5789Z" fill="#1A1A1A"/>
<path d="M14.1535 9.96313H13.5381V10.5789H14.1535V9.96313Z" fill="#1A1A1A"/>
<path d="M15.3841 9.34741H14.1533V9.96321H15.3841V9.34741Z" fill="#1A1A1A"/>
<path d="M14.1526 8.73145H12.9219V9.34725H14.1526V8.73145Z" fill="#1A1A1A"/>
<path d="M9.23062 10.5789H8.61523V11.1947H9.23062V10.5789Z" fill="#1A1A1A"/>
<path d="M9.84585 11.1948H9.23047V11.8106H9.84585V11.1948Z" fill="#1A1A1A"/>
<path d="M10.4611 11.8105H9.8457V13.0421H10.4611V11.8105Z" fill="#1A1A1A"/>
<path d="M11.0762 13.0421V14.2737H11.6916V13.6579H12.3069V13.0421H12.9223V12.4263H13.5377V11.8105H14.1531V11.1947H14.7685V10.5789H15.3838V9.96313H14.1531V10.5789H13.5377V11.1947H12.9223V11.8105H12.3069V12.4263H11.6916V13.0421H11.0762Z" fill="#E8C96F"/>
<path d="M11.0763 13.042H10.4609V14.2736H11.0763V13.042Z" fill="#1A1A1A"/>
<path d="M7.99917 7.5H7.38379V9.9632H7.99917V7.5Z" fill="#1A1A1A"/>
<path d="M8 7.49983V9.96303H8.61538V10.5788H9.23076V11.1946H9.84614V11.8104H10.4615V13.042H11.0769V12.4262H11.6923V11.8104H12.3077V11.1946H12.923V10.5788H13.5384V9.96303H14.1538V9.34723H12.923V8.73143H12.3077V8.11563H11.6923V7.49983H11.0769V6.88403H8.61538V7.49983H8Z" fill="#E8C96F"/>
<path d="M8.61538 9.96313H8V10.5789H8.61538V9.96313Z" fill="#1A1A1A"/>
<path d="M11.6922 13.658H12.3076V13.0422H11.6922V13.658Z" fill="#C29D4E"/>
<path d="M11.076 12.4263H11.6914V11.8105H11.076V12.4263Z" fill="#C29D4E"/>
<path d="M10.4608 11.8105H11.0762V11.1947H10.4608V11.8105Z" fill="#C29D4E"/>
<path d="M11.076 9.34741H11.6914V8.73161H11.076V9.34741Z" fill="white"/>
<path d="M14.1532 11.1948H14.7686V10.579H14.1532V11.1948Z" fill="white"/>
<path d="M10.4608 8.73145H11.0762V8.11565H10.4608V8.73145Z" fill="white"/>
<path d="M9.84556 8.11572H10.4609V7.49992H9.84556V8.11572Z" fill="white"/>
<path d="M9.84556 11.1948H10.4609V10.579H9.84556V11.1948Z" fill="#C29D4E"/>
<path d="M9.23032 10.5789H9.8457V9.96306H9.23032V10.5789Z" fill="#C29D4E"/>
<path d="M8.61509 9.96313H9.23047V9.34733H8.61509V9.96313Z" fill="#C29D4E"/>
<path d="M7.99985 9.34741H8.61523V8.73161H7.99985V9.34741Z" fill="#C29D4E"/>
<path d="M13.5382 13.658H12.9229V14.2738H13.5382V13.658Z" fill="#1A1A1A"/>
<path d="M12.923 14.2737H12.3076V14.8895H12.923V14.2737Z" fill="#1A1A1A"/>
<path d="M9.84585 7.5H9.23047V8.1158H9.84585V7.5Z" fill="white"/>
<path d="M7.38687 5.03662H6.77148V5.65242H7.38687V5.03662Z" fill="#FF3314"/>
<path d="M6.1564 6.26814H5.54102V7.49974H6.1564V6.88394H6.77178V5.65234H6.1564V6.26814Z" fill="#FF3314"/>
<path d="M5.54019 5.03661V4.42081H6.77095V3.80501H6.15557V3.18921H4.9248V5.65241H6.15557V5.03661H5.54019Z" fill="#FF3314"/>
<path d="M9.23159 5.03662H8.61621V5.65242H9.23159V5.03662Z" fill="#FF3314"/>
<path d="M9.8478 6.26814H10.4632V7.49974H9.8478V6.88394H9.23242V5.65234H9.8478V6.26814Z" fill="#FF3314"/>
<path d="M10.4632 5.03661V4.42081H9.23242V3.80501H9.8478V3.18921H11.0786V5.65241H9.8478V5.03661H10.4632Z" fill="#FF3314"/>
<path d="M8.61553 3.80518H7.38477V5.03678H8.61553V3.80518Z" fill="#FF3314"/>
<path d="M5.53921 3.80518H4.92383V4.42098H5.53921V3.80518Z" fill="white"/>
<path d="M6.15444 3.18921H5.53906V3.80501H6.15444V3.18921Z" fill="white"/>
<path d="M11.0773 3.18921H10.4619V3.80501H11.0773V3.18921Z" fill="white"/>
<path d="M10.463 3.80518H9.84766V4.42098H10.463V3.80518Z" fill="white"/>
<path d="M7.38491 5.03662H6.76953V5.65242H7.38491V5.03662Z" fill="#AD1714"/>
<path d="M9.23159 5.03662H8.61621V5.65242H9.23159V5.03662Z" fill="#AD1714"/>
<path d="M6.15444 5.03662H5.53906V5.65242H6.15444V5.03662Z" fill="#AD1714"/>
<path d="M10.463 5.03662H9.84766V5.65242H10.463V5.03662Z" fill="#AD1714"/>
<path d="M6.76953 6.26839V6.88419H7.38491V5.65259H6.76953V6.26839Z" fill="#1A1A1A"/>
<path d="M5.53921 6.26839H6.15459V5.65259H4.92383V7.49999H5.53921V6.26839Z" fill="#1A1A1A"/>
<path d="M6.76968 6.88403H6.1543V7.49983H6.76968V6.88403Z" fill="#1A1A1A"/>
<path d="M6.15444 7.49976H5.53906V8.11556H6.15444V7.49976Z" fill="#1A1A1A"/>
<path d="M9.84683 6.88403H9.23145V7.49983H9.84683V6.88403Z" fill="#1A1A1A"/>
<path d="M10.4621 7.49976H9.84668V8.11556H10.4621V7.49976Z" fill="#1A1A1A"/>
<path d="M9.23159 5.65259H8.61621V6.88419H9.23159V5.65259Z" fill="#1A1A1A"/>
<path d="M6.76968 3.18921H6.1543V3.80501H6.76968V3.18921Z" fill="#1A1A1A"/>
<path d="M4.92397 3.18921H4.30859V5.65241H4.92397V3.18921Z" fill="#1A1A1A"/>
<path d="M6.15459 3.18929V2.57349H4.92383V3.18929H6.15459Z" fill="#1A1A1A"/>
<path d="M9.84683 3.18921H9.23145V3.80501H9.84683V3.18921Z" fill="#1A1A1A"/>
<path d="M9.84668 5.65259V6.26839H10.4621V7.49999H11.0774V5.65259H9.84668Z" fill="#1A1A1A"/>
<path d="M5.53906 4.42098V5.03678H6.15444V5.65258H6.76983V5.03678H7.38521V3.80518H6.76983V4.42098H5.53906Z" fill="#1A1A1A"/>
<path d="M11.0781 3.18921V5.65241H11.6935V3.18921H11.0781Z" fill="#1A1A1A"/>
<path d="M11.0774 3.18929V2.57349H9.84668V3.18929H11.0774Z" fill="#1A1A1A"/>
<path d="M8.61621 5.03678H9.23159V5.65258H9.84697V5.03678H10.4624V4.42098H9.23159V3.80518H8.61621V5.03678Z" fill="#1A1A1A"/>
<path d="M8.61553 3.80501V3.18921H7.38477V3.80501H8.61553Z" fill="#1A1A1A"/>
<path d="M7.38477 5.03662V5.65242H8.61553V5.03662H7.38477Z" fill="#1A1A1A"/>
<path d="M6.76988 1.34187V3.18927H6.1545V2.57347H4.92373V3.18927H4.30835V5.65247H4.92373V6.26827V6.88407H4.30835V7.49987H3.69297V6.26827H1.84683V5.03667H2.46221V4.42087H1.84683V3.80507H1.23145V2.57347H1.84683V1.95767H1.23145V0.726074H2.46221V1.34187H3.07759V0.726074H4.30835V1.95767H5.53911V1.34187H6.76988Z" fill="#019472"/>
<path d="M9.23047 1.34187V3.18927H9.84585V2.57347H11.0766V3.18927H11.692V5.65247H11.0766V6.26827H11.692V6.88408H12.3074V6.26827H14.1535V5.03667H13.5381V4.42087H14.1535V3.80507H14.7689V2.57347H14.1535V1.95767H14.7689V0.726074H13.5381V1.34187H12.9228V0.726074H11.692V1.95767H10.4612V1.34187H9.23047Z" fill="#019472"/>
<path d="M11.6916 5.65259H11.0762V6.88419H11.6916V5.65259Z" fill="#005642"/>
<path d="M12.3078 6.26831H11.6924V7.49991H12.3078V6.26831Z" fill="#005642"/>
<path d="M4.30776 6.88428H3.69238V7.50008H4.30776V6.88428Z" fill="#005642"/>
<path d="M4.30776 3.80518H3.69238V4.42098H4.30776V3.80518Z" fill="#005642"/>
<path d="M3.69253 3.18945H3.07715V3.80525H3.69253V3.18945Z" fill="#005642"/>
<path d="M3.0773 2.57349H2.46191V3.18929H3.0773V2.57349Z" fill="#005642"/>
<path d="M11.6922 4.4209H12.3076V3.8051H11.6922V4.4209Z" fill="#005642"/>
<path d="M12.3075 3.80518H12.9229V3.18938H12.3075V3.80518Z" fill="#005642"/>
<path d="M12.9227 3.18945H13.5381V2.57365H12.9227V3.18945Z" fill="#005642"/>
<path d="M14.1536 9.34741H12.9229V9.96321H14.1536V9.34741Z" fill="#C29D4E"/>
<path d="M12.923 8.73145H12.3076V9.34725H12.923V8.73145Z" fill="#C29D4E"/>
<path d="M12.3078 8.11572H11.6924V8.73152H12.3078V8.11572Z" fill="#C29D4E"/>
<path d="M11.6916 7.5H11.0762V8.1158H11.6916V7.5Z" fill="#C29D4E"/>
<path d="M3.69253 8.73145H3.07715V9.34725H3.69253V8.73145Z" fill="white"/>
<path d="M2.46206 2.57349H1.84668V3.18929H2.46206V2.57349Z" fill="white"/>
<path d="M3.0773 3.18945H2.46191V3.80525H3.0773V3.18945Z" fill="white"/>
<path d="M12.923 2.57349H12.3076V3.18929H12.923V2.57349Z" fill="white"/>
<path d="M13.5382 1.95776H12.9229V2.57356H13.5382V1.95776Z" fill="white"/>
<path d="M3.07715 0.110352V0.726151H4.30791V0.110352H3.07715Z" fill="#1A1A1A"/>
<path d="M0.615234 0.110352V1.95775H1.23062V0.726151H2.46138V0.110352H0.615234Z" fill="#1A1A1A"/>
<path d="M3.0773 0.726074H2.46191V1.34187H3.0773V0.726074Z" fill="#1A1A1A"/>
<path d="M0.615234 3.80509H1.23062V2.57349H0.615234V3.80509Z" fill="#1A1A1A"/>
<path d="M1.23145 6.26822H1.84683V5.03662H1.23145V6.26822Z" fill="#1A1A1A"/>
<path d="M3.07647 6.88411V7.49991H3.69185V6.26831H1.8457V6.88411H3.07647Z" fill="#1A1A1A"/>
<path d="M2.46108 4.4209H1.8457V5.0367H2.46108V4.4209Z" fill="#1A1A1A"/>
<path d="M5.53809 0.726074V1.34187H6.76885V0.726074H5.53809Z" fill="#1A1A1A"/>
<path d="M6.76855 1.34204V3.18944H7.38394V1.34204H6.76855Z" fill="#1A1A1A"/>
<path d="M1.84683 1.95776H1.23145V2.57356H1.84683V1.95776Z" fill="#1A1A1A"/>
<path d="M1.84683 3.80518H1.23145V4.42098H1.84683V3.80518Z" fill="#1A1A1A"/>
<path d="M4.923 0.726074H4.30762V1.95767H5.53838V1.34187H4.923V0.726074Z" fill="#1A1A1A"/>
<path d="M11.6914 0.110352V0.726151H12.9222V0.110352H11.6914Z" fill="#1A1A1A"/>
<path d="M15.3842 0.110352H13.5381V0.726151H14.7688V1.95775H15.3842V0.110352Z" fill="#1A1A1A"/>
<path d="M13.5373 0.726074H12.9219V1.34187H13.5373V0.726074Z" fill="#1A1A1A"/>
<path d="M15.3839 3.80509V2.57349H14.7686V3.80509H15.3839Z" fill="#1A1A1A"/>
<path d="M14.7677 6.26822V5.03662H14.1523V6.26822H14.7677Z" fill="#1A1A1A"/>
<path d="M12.3066 7.49991H12.922V6.88411H14.1528V6.26831H12.3066V7.49991Z" fill="#1A1A1A"/>
<path d="M14.1535 4.4209H13.5381V5.0367H14.1535V4.4209Z" fill="#1A1A1A"/>
<path d="M9.23047 0.726074V1.34187H10.4612V0.726074H9.23047Z" fill="#1A1A1A"/>
<path d="M8.61426 3.18944H9.22964V1.34204H8.61426V3.18944Z" fill="#1A1A1A"/>
<path d="M14.7677 1.95776H14.1523V2.57356H14.7677V1.95776Z" fill="#1A1A1A"/>
<path d="M14.7677 3.80518H14.1523V4.42098H14.7677V3.80518Z" fill="#1A1A1A"/>
<path d="M11.0763 1.34187H10.4609V1.95767H11.6917V0.726074H11.0763V1.34187Z" fill="#1A1A1A"/>
</svg>
