<svg width="32" height="41" viewBox="0 0 32 41" fill="none" xmlns="http://www.w3.org/2000/svg">
<path d="M16.6889 2.32745H15.3105V3.70676H16.6889V2.32745Z" fill="#E8C96F"/>
<path d="M16.6889 36.8103H15.3105V39.5689H16.6889V36.8103Z" fill="#954F2B"/>
<path d="M15.311 6.46539H13.9326V9.22401H15.311V6.46539Z" fill="#1A1A1A"/>
<path d="M13.9326 9.224H12.5542V11.9826H13.9326V9.224Z" fill="#1A1A1A"/>
<path d="M16.6889 3.70673H15.3105V6.46535H16.6889V3.70673Z" fill="#1A1A1A"/>
<path d="M12.5546 11.9826H11.1763V14.7412H12.5546V11.9826Z" fill="#1A1A1A"/>
<path d="M11.1757 14.7412H9.79736V16.1205H11.1757V14.7412Z" fill="#1A1A1A"/>
<path d="M9.79781 16.1206H8.41943V17.4999H9.79781V16.1206Z" fill="#1A1A1A"/>
<path d="M13.9325 17.4999V18.8792H12.5541V20.2585H11.1757V18.8792H9.79736V17.4999H13.9325Z" fill="#1A1A1A"/>
<path d="M11.1757 20.2585H9.79736V21.6379H11.1757V20.2585Z" fill="#1A1A1A"/>
<path d="M9.79781 21.6378H8.41943V23.0171H9.79781V21.6378Z" fill="#1A1A1A"/>
<path d="M8.41939 23.0171H7.04102V24.3964H8.41939V23.0171Z" fill="#1A1A1A"/>
<path d="M7.04048 24.3964H5.66211V25.7757H7.04048V24.3964Z" fill="#1A1A1A"/>
<path d="M9.79723 27.155V28.5343H8.41886V29.9137H7.04048V28.5343H5.66211V27.155H9.79723Z" fill="#1A1A1A"/>
<path d="M7.04048 29.9137H5.66211V31.293H7.04048V29.9137Z" fill="#1A1A1A"/>
<path d="M5.66255 31.293H4.28418V32.6723H5.66255V31.293Z" fill="#1A1A1A"/>
<path d="M4.28365 32.6722H2.90527V34.0516H4.28365V32.6722Z" fill="#1A1A1A"/>
<path d="M2.90621 34.0516H1.52783V35.4309H2.90621V34.0516Z" fill="#1A1A1A"/>
<path d="M1.5273 35.4309H0.148926V36.8102H1.5273V35.4309Z" fill="#1A1A1A"/>
<path d="M5.66255 25.7758H4.28418V27.1551H5.66255V25.7758Z" fill="#1A1A1A"/>
<path d="M18.0678 6.46539H16.6895V9.22401H18.0678V6.46539Z" fill="#1A1A1A"/>
<path d="M19.4467 9.224H18.0684V11.9826H19.4467V9.224Z" fill="#1A1A1A"/>
<path d="M20.8242 11.9826H19.4458V14.7412H20.8242V11.9826Z" fill="#1A1A1A"/>
<path d="M22.2031 14.7412H20.8247V16.1205H22.2031V14.7412Z" fill="#1A1A1A"/>
<path d="M23.581 16.1206H22.2026V17.4999H23.581V16.1206Z" fill="#1A1A1A"/>
<path d="M22.2035 17.4999V18.8792H20.8251V20.2585H19.4467V18.8792H18.0684V17.4999H22.2035Z" fill="#1A1A1A"/>
<path d="M22.2031 20.2585H20.8247V21.6379H22.2031V20.2585Z" fill="#1A1A1A"/>
<path d="M23.581 21.6378H22.2026V23.0171H23.581V21.6378Z" fill="#1A1A1A"/>
<path d="M24.9594 23.0171H23.5811V24.3964H24.9594V23.0171Z" fill="#1A1A1A"/>
<path d="M26.3383 24.3964H24.96V25.7757H26.3383V24.3964Z" fill="#1A1A1A"/>
<path d="M26.3383 29.9137H24.96V31.293H26.3383V29.9137Z" fill="#1A1A1A"/>
<path d="M27.7163 31.293H26.3379V32.6723H27.7163V31.293Z" fill="#1A1A1A"/>
<path d="M29.0952 32.6722H27.7168V34.0516H29.0952V32.6722Z" fill="#1A1A1A"/>
<path d="M30.4726 34.0516H29.0942V35.4309H30.4726V34.0516Z" fill="#1A1A1A"/>
<path d="M31.8515 35.4309H30.4731V36.8102H31.8515V35.4309Z" fill="#1A1A1A"/>
<path d="M27.7163 25.7758H26.3379V27.1551H27.7163V25.7758Z" fill="#1A1A1A"/>
<path d="M30.4737 35.4309V36.8102H24.9602H19.4467H12.5548H7.04132H1.52783V35.4309H2.9062V34.0516H4.28458V32.6723H5.66295V31.293H7.04132V29.9137H8.4197V28.5344H9.79807V27.155H5.66295V25.7757H7.04132V24.3964H8.4197V23.0171H9.79807V21.6378H11.1764V20.2585H12.5548V18.8792H13.9332V17.4999H9.79807V16.1206H11.1764V14.7413H12.5548V11.9826H13.9332V9.22401H15.3116V6.46539H16.6899V9.22401H18.0683V11.9826H19.4467V14.7413H20.8251V16.1206H22.2034V17.4999H18.0683V18.8792H19.4467V20.2585H20.8251V21.6378H22.2034V23.0171H23.5818V24.3964H24.9602V25.7757H26.3385V27.155H22.2034V28.5344H23.5818V29.9137H24.9602V31.293H26.3385V32.6723H27.7169V34.0516H29.0953V35.4309H30.4737Z" fill="#019472"/>
<path d="M26.3378 27.155V28.5343H24.9594V29.9137H23.581V28.5343H22.2026V27.155H26.3378Z" fill="#1A1A1A"/>
<path d="M16.6889 0.94812H15.3105V2.32743H16.6889V0.94812Z" fill="#1A1A1A"/>
<path d="M15.311 2.32745H13.9326V3.70676H15.311V2.32745Z" fill="#1A1A1A"/>
<path d="M18.0678 2.32745H16.6895V3.70676H18.0678V2.32745Z" fill="#1A1A1A"/>
<path d="M22.2035 16.1206H18.0684V17.4999H22.2035V16.1206Z" fill="#005642"/>
<path d="M26.3378 25.7758H22.2026V27.1551H26.3378V25.7758Z" fill="#005642"/>
<path d="M29.0952 34.0516H27.7168V35.4309H29.0952V34.0516Z" fill="#005642"/>
<path d="M24.9594 34.0516H23.5811V35.4309H24.9594V34.0516Z" fill="#005642"/>
<path d="M22.2031 34.0516H20.8247V35.4309H22.2031V34.0516Z" fill="#005642"/>
<path d="M19.4467 34.0516H18.0684V35.4309H19.4467V34.0516Z" fill="#005642"/>
<path d="M16.6889 34.0516H15.3105V35.4309H16.6889V34.0516Z" fill="#005642"/>
<path d="M13.9326 34.0516H12.5542V35.4309H13.9326V34.0516Z" fill="#005642"/>
<path d="M11.1757 34.0516H9.79736V35.4309H11.1757V34.0516Z" fill="#005642"/>
<path d="M8.41939 34.0516H7.04102V35.4309H8.41939V34.0516Z" fill="#005642"/>
<path d="M5.66255 34.0516H4.28418V35.4309H5.66255V34.0516Z" fill="#005642"/>
<path d="M30.4735 35.4309H27.7168V36.8102H30.4735V35.4309Z" fill="#005642"/>
<path d="M24.9594 35.4309H22.2026V36.8102H24.9594V35.4309Z" fill="#005642"/>
<path d="M19.4462 35.4309H16.6895V36.8102H19.4462V35.4309Z" fill="#005642"/>
<path d="M15.3109 35.4309H12.5542V36.8102H15.3109V35.4309Z" fill="#005642"/>
<path d="M9.79776 35.4309H7.04102V36.8102H9.79776V35.4309Z" fill="#005642"/>
<path d="M4.28458 35.4309H1.52783V36.8102H4.28458V35.4309Z" fill="#005642"/>
<path d="M26.3383 31.293H24.96V32.6723H26.3383V31.293Z" fill="#005642"/>
<path d="M27.7163 32.6722H26.3379V34.0516H27.7163V32.6722Z" fill="#005642"/>
<path d="M23.581 28.5344H22.2026V29.9137H23.581V28.5344Z" fill="#005642"/>
<path d="M24.9594 29.9137H23.5811V31.293H24.9594V29.9137Z" fill="#005642"/>
<path d="M22.2031 27.155H20.8247V28.5343H22.2031V27.155Z" fill="#005642"/>
<path d="M20.8242 25.7758H19.4458V27.1551H20.8242V25.7758Z" fill="#005642"/>
<path d="M19.4467 27.155H18.0684V28.5343H19.4467V27.155Z" fill="#005642"/>
<path d="M18.0678 25.7758H16.6895V27.1551H18.0678V25.7758Z" fill="#005642"/>
<path d="M16.6889 27.155H15.3105V28.5343H16.6889V27.155Z" fill="#005642"/>
<path d="M15.311 25.7758H13.9326V27.1551H15.311V25.7758Z" fill="#005642"/>
<path d="M13.9326 27.155H12.5542V28.5343H13.9326V27.155Z" fill="#005642"/>
<path d="M27.7163 34.0516H26.3379V35.4309H27.7163V34.0516Z" fill="#005642"/>
<path d="M12.5546 25.7758H11.1763V27.1551H12.5546V25.7758Z" fill="#005642"/>
<path d="M11.1757 27.155H9.79736V28.5343H11.1757V27.155Z" fill="#005642"/>
<path d="M9.79781 25.7758H8.41943V27.1551H9.79781V25.7758Z" fill="#005642"/>
<path d="M16.6889 16.1206H15.3105V17.4999H16.6889V16.1206Z" fill="#005642"/>
<path d="M15.311 17.4999H13.9326V18.8792H15.311V17.4999Z" fill="#005642"/>
<path d="M13.9326 16.1206H12.5542V17.4999H13.9326V16.1206Z" fill="#005642"/>
<path d="M24.9594 24.3964H23.5811V25.7757H24.9594V24.3964Z" fill="#005642"/>
<path d="M23.581 23.0171H22.2026V24.3964H23.581V23.0171Z" fill="#005642"/>
<path d="M22.2031 21.6378H20.8247V23.0171H22.2031V21.6378Z" fill="#005642"/>
<path d="M20.8242 20.2585H19.4458V21.6379H20.8242V20.2585Z" fill="#005642"/>
<path d="M19.4467 18.8792H18.0684V20.2585H19.4467V18.8792Z" fill="#005642"/>
<path d="M18.0678 17.4999H16.6895V18.8792H18.0678V17.4999Z" fill="#005642"/>
<path d="M20.8242 14.7412H19.4458V16.1205H20.8242V14.7412Z" fill="#005642"/>
<path d="M19.4467 11.9826H18.0684V14.7412H19.4467V11.9826Z" fill="#005642"/>
<path d="M18.0678 9.224H16.6895V11.9826H18.0678V9.224Z" fill="#005642"/>
<path d="M4.28458 36.8103H1.52783V38.1896H4.28458V36.8103Z" fill="#1A1A1A"/>
<path d="M7.04093 35.4309H4.28418V36.8102H7.04093V35.4309Z" fill="#1A1A1A"/>
<path d="M9.79776 36.8103H7.04102V38.1896H9.79776V36.8103Z" fill="#1A1A1A"/>
<path d="M22.2025 35.4309H19.4458V36.8102H22.2025V35.4309Z" fill="#1A1A1A"/>
<path d="M24.9594 36.8103H22.2026V38.1896H24.9594V36.8103Z" fill="#1A1A1A"/>
<path d="M27.7167 35.4309H24.96V36.8102H27.7167V35.4309Z" fill="#1A1A1A"/>
<path d="M30.4735 36.8103H27.7168V38.1896H30.4735V36.8103Z" fill="#1A1A1A"/>
<path d="M12.5541 35.4309H9.79736V36.8102H12.5541V35.4309Z" fill="#1A1A1A"/>
<path d="M13.9326 36.8103H12.5542V38.1896H13.9326V36.8103Z" fill="#1A1A1A"/>
<path d="M19.4467 36.8103H18.0684V38.1896H19.4467V36.8103Z" fill="#1A1A1A"/>
<path d="M16.6889 35.4309H15.3105V36.8102H16.6889V35.4309Z" fill="#1A1A1A"/>
<path d="M18.0677 39.5688H13.9326V40.9482H18.0677V39.5688Z" fill="#1A1A1A"/>
<path d="M15.311 36.8103H13.9326V39.5689H15.311V36.8103Z" fill="#1A1A1A"/>
<path d="M18.0678 36.8103H16.6895V39.5689H18.0678V36.8103Z" fill="#1A1A1A"/>
<path d="M18.0678 9.224H16.6895V10.6033H18.0678V9.224Z" fill="#CAD2D5"/>
<path d="M23.581 23.0171H22.2026V24.3964H23.581V23.0171Z" fill="#CAD2D5"/>
<path d="M13.9326 18.8792H12.5542V20.2585H13.9326V18.8792Z" fill="white"/>
<path d="M16.6894 20.2585H13.9326V21.6379H16.6894V20.2585Z" fill="white"/>
<path d="M19.4462 21.6378H16.6895V23.0171H19.4462V21.6378Z" fill="white"/>
<path d="M22.2025 23.0171H19.4458V24.3964H22.2025V23.0171Z" fill="white"/>
<path d="M23.581 28.5344H22.2026V29.9137H23.581V28.5344Z" fill="#CAD2D5"/>
<path d="M22.2025 29.9137H19.4458V31.293H22.2025V29.9137Z" fill="white"/>
<path d="M8.41939 29.9137H7.04102V31.293H8.41939V29.9137Z" fill="white"/>
<path d="M19.4462 31.293H16.6895V32.6723H19.4462V31.293Z" fill="white"/>
<path d="M16.6898 32.6722H11.1763V34.0516H16.6898V32.6722Z" fill="white"/>
<path d="M11.1762 31.293H8.41943V32.6723H11.1762V31.293Z" fill="white"/>
<path d="M16.6894 10.6033H13.9326V11.9826H16.6894V10.6033Z" fill="white"/>
<path d="M13.9335 23.0171H12.5552V24.3964H13.9335V23.0171Z" fill="#E8C96F"/>
<path d="M13.9335 21.6378H12.5552V23.0171H13.9335V21.6378Z" fill="#1A1A1A"/>
<path d="M12.5546 23.0171H11.1763V24.3964H12.5546V23.0171Z" fill="#1A1A1A"/>
<path d="M13.9335 24.3965H12.5552V25.7758H13.9335V24.3965Z" fill="#1A1A1A"/>
<path d="M15.311 23.0171H13.9326V24.3964H15.311V23.0171Z" fill="#1A1A1A"/>
<path d="M26.3383 31.293H24.96V32.6723H26.3383V31.293Z" fill="#E8C96F"/>
<path d="M26.3383 29.9137H24.96V31.293H26.3383V29.9137Z" fill="#1A1A1A"/>
<path d="M24.9594 31.293H23.5811V32.6723H24.9594V31.293Z" fill="#1A1A1A"/>
<path d="M26.3383 32.6724H24.96V34.0517H26.3383V32.6724Z" fill="#1A1A1A"/>
<path d="M27.7158 31.293H26.3374V32.6723H27.7158V31.293Z" fill="#1A1A1A"/>
<path d="M19.4472 28.5343H18.0688V29.9136H19.4472V28.5343Z" fill="#FF3314"/>
<path d="M19.4472 27.155H18.0688V28.5343H19.4472V27.155Z" fill="#1A1A1A"/>
<path d="M18.0683 28.5343H16.6899V29.9136H18.0683V28.5343Z" fill="#1A1A1A"/>
<path d="M19.4472 29.9137H18.0688V31.293H19.4472V29.9137Z" fill="#1A1A1A"/>
<path d="M20.8247 28.5343H19.4463V29.9136H20.8247V28.5343Z" fill="#1A1A1A"/>
<path d="M11.1767 31.293H9.79834V32.6723H11.1767V31.293Z" fill="#FF3314"/>
<path d="M11.1767 29.9137H9.79834V31.293H11.1767V29.9137Z" fill="#1A1A1A"/>
<path d="M9.79781 31.293H8.41943V32.6723H9.79781V31.293Z" fill="#1A1A1A"/>
<path d="M11.1767 32.6724H9.79834V34.0517H11.1767V32.6724Z" fill="#1A1A1A"/>
<path d="M12.5546 31.293H11.1763V32.6723H12.5546V31.293Z" fill="#1A1A1A"/>
<path d="M18.0673 13.3619H16.689V14.7412H18.0673V13.3619Z" fill="#FF3314"/>
<path d="M18.0673 11.9826H16.689V13.3619H18.0673V11.9826Z" fill="#1A1A1A"/>
<path d="M16.6884 13.3619H15.3101V14.7412H16.6884V13.3619Z" fill="#1A1A1A"/>
<path d="M18.0673 14.7412H16.689V16.1205H18.0673V14.7412Z" fill="#1A1A1A"/>
<path d="M19.4448 13.3619H18.0664V14.7412H19.4448V13.3619Z" fill="#1A1A1A"/>
</svg>
