<svg width="40" height="41" viewBox="0 0 40 41" fill="none" xmlns="http://www.w3.org/2000/svg">
<path d="M4.17775 17.6149V19.2816H2.51221V39.2816H0.84668V15.9482H2.51221V17.6149H4.17775Z" fill="#1A1A1A"/>
<path d="M4.17823 14.2815H2.5127V15.9482H4.17823V14.2815Z" fill="#1A1A1A"/>
<path d="M37.4889 39.2815H2.5127V40.9482H37.4889V39.2815Z" fill="#1A1A1A"/>
<path d="M5.84327 35.9482H4.17773V37.6148H5.84327V35.9482Z" fill="#1A1A1A"/>
<path d="M7.50928 34.2816H5.84375V35.9482H7.50928V34.2816Z" fill="#1A1A1A"/>
<path d="M9.17383 32.6149H7.5083V34.2815H9.17383V32.6149Z" fill="#1A1A1A"/>
<path d="M10.8399 30.9482H9.17432V32.6149H10.8399V30.9482Z" fill="#1A1A1A"/>
<path d="M35.8232 35.9482H34.1577V37.6148H35.8232V35.9482Z" fill="#1A1A1A"/>
<path d="M29.1616 25.9482H27.4961V27.6148H29.1616V25.9482Z" fill="#1A1A1A"/>
<path d="M30.8262 24.2815H29.1606V25.9482H30.8262V24.2815Z" fill="#1A1A1A"/>
<path d="M32.4922 22.6149H30.8267V24.2815H32.4922V22.6149Z" fill="#1A1A1A"/>
<path d="M34.1572 34.2816H32.4917V35.9482H34.1572V34.2816Z" fill="#1A1A1A"/>
<path d="M32.4922 32.6149H30.8267V34.2815H32.4922V32.6149Z" fill="#1A1A1A"/>
<path d="M30.8262 30.9482H29.1606V32.6149H30.8262V30.9482Z" fill="#1A1A1A"/>
<path d="M29.1616 29.2816H27.4961V30.9482H29.1616V29.2816Z" fill="#1A1A1A"/>
<path d="M27.4956 27.6149H25.8301V29.2815H27.4956V27.6149Z" fill="#1A1A1A"/>
<path d="M25.8301 25.9482H22.499V27.6148H25.8301V25.9482Z" fill="#1A1A1A"/>
<path d="M22.4986 24.2815H17.502V25.9482H22.4986V24.2815Z" fill="#1A1A1A"/>
<path d="M17.5025 25.9482H14.1714V27.6148H17.5025V25.9482Z" fill="#1A1A1A"/>
<path d="M14.1709 27.6149H12.5054V29.2815H14.1709V27.6149Z" fill="#1A1A1A"/>
<path d="M7.50928 20.9482H5.84375V22.6148H7.50928V20.9482Z" fill="#1A1A1A"/>
<path d="M9.17383 22.6149H7.5083V24.2815H9.17383V22.6149Z" fill="#1A1A1A"/>
<path d="M10.8399 24.2815H9.17432V25.9482H10.8399V24.2815Z" fill="#1A1A1A"/>
<path d="M12.5059 25.9482H10.8403V27.6148H12.5059V25.9482Z" fill="#1A1A1A"/>
<path d="M12.5059 29.2816H10.8403V30.9482H12.5059V29.2816Z" fill="#1A1A1A"/>
<path d="M32.4913 7.61487V22.6149H30.8258V24.2815H29.1602V25.9482H27.4947V27.6149H25.8292V25.9482H22.4981V24.2815H17.5015V25.9482H14.1704V27.6149H12.5049V25.9482H10.8394V24.2815H9.17383V22.6149H7.5083V7.61487H32.4913Z" fill="#FF3314"/>
<path d="M34.1574 14.2816V19.2816H35.8229V20.9482H34.1574V22.6149H32.4918V7.61489H7.5088V20.9482H4.17773V19.2816H5.84327V14.2816H4.17773V12.6149H5.84327V5.94822H12.5054V4.28156H14.1709V5.94822H25.8297V4.28156H27.4952V5.94822H34.1574V12.6149H35.8229V14.2816H34.1574Z" fill="#1A1A1A"/>
<path d="M17.5025 2.61487H14.1714V4.28154H17.5025V2.61487Z" fill="#1A1A1A"/>
<path d="M22.4986 0.948181H17.502V2.61485H22.4986V0.948181Z" fill="#1A1A1A"/>
<path d="M37.4889 19.2815V39.2815H2.5127V19.2815H4.17823V20.9482H5.84376V22.6148H7.5093V24.2815H9.17483V25.9482H10.8404V27.6148H12.5059V29.2815H10.8404V30.9482H9.17483V32.6148H7.5093V34.2815H5.84376V35.9482H4.17823V37.6148H5.84376V35.9482H7.5093V34.2815H9.17483V32.6148H10.8404V30.9482H12.5059V29.2815H14.1714V27.6148H17.5025V25.9482H22.4991V27.6148H25.8302V29.2815H27.4957V30.9482H29.1612V32.6148H30.8268V34.2815H32.4923V35.9482H34.1578V37.6148H35.8234V35.9482H34.1578V34.2815H32.4923V32.6148H30.8268V30.9482H29.1612V29.2815H27.4957V27.6148H29.1612V25.9482H30.8268V24.2815H32.4923V22.6148H34.1578V20.9482H35.8234V19.2815H37.4889Z" fill="#E8C96F"/>
<path d="M39.1533 15.9482V39.2816H37.4878V19.2816H35.8223V17.6149H37.4878V15.9482H39.1533Z" fill="#1A1A1A"/>
<path d="M37.4878 14.2815H35.8223V15.9482H37.4878V14.2815Z" fill="#1A1A1A"/>
<path d="M4.17823 15.9482H2.5127V17.6148H4.17823V19.2815H5.84376V14.2815H4.17823V15.9482Z" fill="#C29D4E"/>
<path d="M35.8232 15.9482V14.2815H34.1577V19.2815H35.8232V17.6148H37.4888V15.9482H35.8232Z" fill="#C29D4E"/>
<path d="M22.4991 2.61487H17.5025V4.28154H14.1714V5.9482H25.8301V4.28154H22.4991V2.61487Z" fill="#C29D4E"/>
<path d="M25.8301 2.61487H22.499V4.28154H25.8301V2.61487Z" fill="#1A1A1A"/>
<path d="M20.8345 10.9482H19.1689V14.2815H20.8345V10.9482Z" fill="white"/>
<path d="M20.8345 19.2815H19.1689V22.6148H20.8345V19.2815Z" fill="white"/>
<path d="M19.1685 14.2815H17.5029V15.9482H19.1685V14.2815Z" fill="white"/>
<path d="M22.499 14.2815H20.8335V15.9482H22.499V14.2815Z" fill="white"/>
<path d="M24.165 12.6149H22.4995V14.2815H24.165V12.6149Z" fill="white"/>
<path d="M22.499 17.6149H20.8335V19.2815H22.499V17.6149Z" fill="white"/>
<path d="M24.165 19.2815H22.4995V20.9482H24.165V19.2815Z" fill="white"/>
<path d="M19.1685 17.6149H17.5029V19.2815H19.1685V17.6149Z" fill="white"/>
<path d="M17.5034 19.2815H15.8379V20.9482H17.5034V19.2815Z" fill="white"/>
<path d="M17.5034 12.6149H15.8379V14.2815H17.5034V12.6149Z" fill="white"/>
<path d="M20.8345 15.9482H19.1689V17.6148H20.8345V15.9482Z" fill="white"/>
<path d="M17.5029 15.9482H14.1719V17.6148H17.5029V15.9482Z" fill="white"/>
<path d="M25.8306 15.9482H22.4995V17.6148H25.8306V15.9482Z" fill="white"/>
<path d="M37.4878 20.9482H35.8223V22.6148H37.4878V20.9482Z" fill="#C29D4E"/>
<path d="M35.8232 22.6149H34.1577V24.2815H35.8232V22.6149Z" fill="#C29D4E"/>
<path d="M35.8232 25.9482H34.1577V27.6148H35.8232V25.9482Z" fill="#C29D4E"/>
<path d="M35.8232 29.2816H34.1577V30.9482H35.8232V29.2816Z" fill="#C29D4E"/>
<path d="M35.8232 32.6149H34.1577V34.2815H35.8232V32.6149Z" fill="#C29D4E"/>
<path d="M37.4878 24.2815H35.8223V25.9482H37.4878V24.2815Z" fill="#C29D4E"/>
<path d="M37.4878 27.6149H35.8223V29.2815H37.4878V27.6149Z" fill="#C29D4E"/>
<path d="M37.4878 30.9482H35.8223V32.6149H37.4878V30.9482Z" fill="#C29D4E"/>
<path d="M37.4878 34.2816H35.8223V35.9482H37.4878V34.2816Z" fill="#C29D4E"/>
<path d="M37.4878 37.6149H35.8223V39.2815H37.4878V37.6149Z" fill="#C29D4E"/>
<path d="M34.1572 37.6149H32.4917V39.2815H34.1572V37.6149Z" fill="#C29D4E"/>
<path d="M30.8262 37.6149H29.1606V39.2815H30.8262V37.6149Z" fill="#C29D4E"/>
<path d="M27.4956 37.6149H25.8301V39.2815H27.4956V37.6149Z" fill="#C29D4E"/>
<path d="M24.1646 37.6149H22.499V39.2815H24.1646V37.6149Z" fill="#C29D4E"/>
<path d="M20.8335 37.6149H19.168V39.2815H20.8335V37.6149Z" fill="#C29D4E"/>
<path d="M17.5015 37.6149H15.8359V39.2815H17.5015V37.6149Z" fill="#C29D4E"/>
<path d="M14.1709 37.6149H12.5054V39.2815H14.1709V37.6149Z" fill="#C29D4E"/>
<path d="M10.8399 37.6149H9.17432V39.2815H10.8399V37.6149Z" fill="#C29D4E"/>
<path d="M7.50928 37.6149H5.84375V39.2815H7.50928V37.6149Z" fill="#C29D4E"/>
<path d="M4.17823 37.6149H2.5127V39.2815H4.17823V37.6149Z" fill="#C29D4E"/>
<path d="M9.17383 20.9482H7.5083V22.6148H9.17383V20.9482Z" fill="#AD1714"/>
<path d="M10.8399 22.6149H9.17432V24.2815H10.8399V22.6149Z" fill="#AD1714"/>
<path d="M12.5059 24.2815H10.8403V25.9482H12.5059V24.2815Z" fill="#AD1714"/>
<path d="M14.1709 25.9482H12.5054V27.6148H14.1709V25.9482Z" fill="#AD1714"/>
<path d="M24.1646 24.2815H22.499V25.9482H24.1646V24.2815Z" fill="#AD1714"/>
<path d="M27.4956 25.9482H25.8301V27.6148H27.4956V25.9482Z" fill="#AD1714"/>
</svg>
