<svg width="14" height="17" viewBox="0 0 14 17" fill="none" xmlns="http://www.w3.org/2000/svg">
<path d="M11.6852 12.8076V13.423H11.0702V14.0384H2.46067V13.423H1.8457V12.8076H11.6852Z" fill="#C29D4E"/>
<path d="M12.2979 15.2692V15.8846H1.22852V15.2692H1.84348V14.6538H11.6829V15.2692H12.2979Z" fill="#C29D4E"/>
<path d="M12.2979 15.2693H1.22852V15.8847H12.2979V15.2693Z" fill="#E8C96F"/>
<path d="M11.6852 12.8076H1.8457V13.423H11.6852V12.8076Z" fill="#E8C96F"/>
<path d="M12.9145 5.42317V9.11548H12.2996V10.3462H11.6846V11.577H11.0696V12.1924H2.46013V11.577H1.84517V10.3462H1.2302V9.11548H0.615234V5.42317H1.2302V4.1924H1.84517V2.96163H2.46013V2.34625H3.69006V1.73086H4.91999V1.11548H8.60979V1.73086H9.83972V2.34625H11.0696V2.96163H11.6846V4.1924H12.2996V5.42317H12.9145Z" fill="#CAD2D5"/>
<path d="M7.99307 4.19238H5.5332V5.42315H7.99307V4.19238Z" fill="#FF3314"/>
<path d="M7.99307 6.65396V7.88473H5.5332V6.65396H6.14817V6.03857H7.3781V6.65396H6.76313V7.26934H7.3781V6.65396H7.99307Z" fill="white"/>
<path d="M8.60945 9.73077V9.11538H7.99448V8.5H5.53462V9.11538H4.91965V9.73077H4.30469V11.5769H4.91965V12.1923H8.60945V11.5769H9.22441V9.73077H8.60945ZM7.37952 11.5769H6.76455V10.9615H7.37952V11.5769ZM7.37952 10.3462H6.76455V9.73077H7.37952V10.3462Z" fill="white"/>
<path d="M4.3061 12.8076H3.07617V13.423H4.3061V12.8076Z" fill="white"/>
<path d="M3.68892 15.2693H2.45898V15.8847H3.68892V15.2693Z" fill="white"/>
<path d="M11.685 15.2693H10.4551V15.8847H11.685V15.2693Z" fill="#C29D4E"/>
<path d="M11.0698 12.8076H9.83984V13.423H11.0698V12.8076Z" fill="#C29D4E"/>
<path d="M3.69114 13.4231H3.07617V14.0385H3.69114V13.4231Z" fill="#E8C96F"/>
<path d="M3.07395 14.6538H2.45898V15.2692H3.07395V14.6538Z" fill="#E8C96F"/>
<path d="M9.22434 12.8076H8.60938V13.423H9.22434V12.8076Z" fill="#C29D4E"/>
<path d="M9.83957 15.2693H9.22461V15.8847H9.83957V15.2693Z" fill="#C29D4E"/>
<path d="M11.6855 4.80762V8.49992H12.3005V4.80762H11.6855Z" fill="#EDEDED"/>
<path d="M11.6833 4.80767V3.5769H11.0684V4.80767H11.6833Z" fill="#EDEDED"/>
<path d="M11.07 3.57696V2.34619H10.4551V3.57696H11.07Z" fill="#EDEDED"/>
<path d="M11.0684 9.73077H11.6833V8.5H11.0684V9.73077Z" fill="#EDEDED"/>
<path d="M10.4551 10.9615H11.07V9.73071H10.4551V10.9615Z" fill="#EDEDED"/>
<path d="M9.83984 11.5771H10.4548V10.9617H9.83984V11.5771Z" fill="#EDEDED"/>
<path d="M9.22461 2.3461H9.83957V1.73071H9.22461V2.3461Z" fill="#EDEDED"/>
<path d="M1.84348 6.65381H1.22852V7.26919H1.84348V6.65381Z" fill="white"/>
<path d="M4.91965 6.03857H4.30469V6.65396H4.91965V6.03857Z" fill="white"/>
<path d="M6.14817 1.73071H5.5332V2.3461H6.14817V1.73071Z" fill="white"/>
<path d="M9.83957 4.19238H9.22461V4.80777H9.83957V4.19238Z" fill="white"/>
<path d="M9.83957 7.26929H9.22461V7.88467H9.83957V7.26929Z" fill="white"/>
<path d="M11.6833 6.65381H11.0684V7.26919H11.6833V6.65381Z" fill="white"/>
<path d="M3.69114 10.3462H3.07617V10.9616H3.69114V10.3462Z" fill="white"/>
<path d="M6.14817 4.19238H5.5332V4.80777H6.14817V4.19238Z" fill="white"/>
<path d="M3.07563 2.34619V2.96158H2.46067V3.57696H1.8457V4.80773H2.46067V4.19234H3.07563V3.57696H3.6906V2.96158H4.30557V2.34619H3.07563Z" fill="white"/>
<path d="M4.91965 11.5769H4.30469V12.1923H4.91965V11.5769Z" fill="#1A1A1A"/>
<path d="M4.91965 9.11548H4.30469V9.73086H4.91965V9.11548Z" fill="#1A1A1A"/>
<path d="M5.53489 8.5H4.91992V9.11538H5.53489V8.5Z" fill="#1A1A1A"/>
<path d="M4.3061 8.5H3.07617V9.11538H4.3061V8.5Z" fill="#1A1A1A"/>
<path d="M3.07563 7.26929H2.46067V7.88467H1.8457V8.50005H3.07563V7.88467V7.26929Z" fill="#1A1A1A"/>
<path d="M10.4545 8.5H9.22461V9.11538H10.4545V8.5Z" fill="#1A1A1A"/>
<path d="M7.37864 10.9617H6.76367V11.5771H7.37864V10.9617Z" fill="#1A1A1A"/>
<path d="M7.37864 9.73071H6.76367V10.3461H7.37864V9.73071Z" fill="#1A1A1A"/>
<path d="M7.37864 6.65381H6.76367V7.26919H7.37864V6.65381Z" fill="#FF3314"/>
<path d="M11.07 7.88467V7.26929H10.4551V8.50005H11.685V7.88467H11.07Z" fill="#1A1A1A"/>
<path d="M5.53462 6.65392H6.14958V6.03853H7.37952V6.65392H7.99448V7.88469H8.60945V6.03853H9.22441V5.42315H8.60945V4.19238H7.99448V5.42315H5.53462V4.19238H4.91965V5.42315H4.30469V6.03853H4.91965V7.88469H5.53462V6.65392Z" fill="#1A1A1A"/>
<path d="M7.99307 3.5769H5.5332V4.19229H7.99307V3.5769Z" fill="#1A1A1A"/>
<path d="M7.99307 7.88452H5.5332V8.49991H7.99307V7.88452Z" fill="#1A1A1A"/>
<path d="M4.30442 9.73071H3.68945V11.5769H4.30442V9.73071Z" fill="#1A1A1A"/>
<path d="M9.22434 11.5769H8.60938V12.1923H9.22434V11.5769Z" fill="#1A1A1A"/>
<path d="M9.22434 9.11548H8.60938V9.73086H9.22434V9.11548Z" fill="#1A1A1A"/>
<path d="M8.60911 8.5H7.99414V9.11538H8.60911V8.5Z" fill="#1A1A1A"/>
<path d="M9.83957 9.73071H9.22461V11.5769H9.83957V9.73071Z" fill="#1A1A1A"/>
<path d="M13.531 5.4231H12.916V9.1154H13.531V5.4231Z" fill="#1A1A1A"/>
<path d="M12.9138 4.19238H12.2988V5.42315H12.9138V4.19238Z" fill="#1A1A1A"/>
<path d="M12.3005 2.96167H11.6855V4.19244H12.3005V2.96167Z" fill="#1A1A1A"/>
<path d="M11.6833 2.34619H11.0684V2.96158H11.6833V2.34619Z" fill="#1A1A1A"/>
<path d="M11.0698 1.73071H9.83984V2.3461H11.0698V1.73071Z" fill="#1A1A1A"/>
<path d="M9.83931 1.11548H8.60938V1.73086H9.83931V1.11548Z" fill="#1A1A1A"/>
<path d="M8.60972 0.5H4.91992V1.11538H8.60972V0.5Z" fill="#1A1A1A"/>
<path d="M4.91938 1.11548H3.68945V1.73086H4.91938V1.11548Z" fill="#1A1A1A"/>
<path d="M3.68892 1.73071H2.45898V2.3461H3.68892V1.73071Z" fill="#1A1A1A"/>
<path d="M2.46067 2.34619H1.8457V2.96158H2.46067V2.34619Z" fill="#1A1A1A"/>
<path d="M1.84348 2.96167H1.22852V4.19244H1.84348V2.96167Z" fill="#1A1A1A"/>
<path d="M1.2302 4.19238H0.615234V5.42315H1.2302V4.19238Z" fill="#1A1A1A"/>
<path d="M12.9138 9.11548H12.2988V10.3462H12.9138V9.11548Z" fill="#1A1A1A"/>
<path d="M12.3005 10.3462H11.6855V11.577H12.3005V10.3462Z" fill="#1A1A1A"/>
<path d="M11.068 12.1923H2.45845V11.5769H1.84348V12.1923H1.22852V13.4231H1.84348V12.8077H11.6829V13.4231H12.2979V12.1923H11.6829V11.5769H11.068V12.1923Z" fill="#1A1A1A"/>
<path d="M1.84348 10.3462H1.22852V11.577H1.84348V10.3462Z" fill="#1A1A1A"/>
<path d="M1.2302 9.11548H0.615234V10.3462H1.2302V9.11548Z" fill="#1A1A1A"/>
<path d="M0.614965 5.4231H0V9.1154H0.614965V5.4231Z" fill="#1A1A1A"/>
<path d="M1.84348 14.6538H1.22852V15.2692H1.84348V14.6538Z" fill="#1A1A1A"/>
<path d="M1.2302 15.8847V15.2693H0.615234V16.5001H12.9145V15.2693H12.2996V15.8847H1.2302Z" fill="#1A1A1A"/>
<path d="M11.0702 14.0385H2.46067V13.4231H1.8457V14.6539H11.6852V13.4231H11.0702V14.0385Z" fill="#1A1A1A"/>
<path d="M12.3005 14.6538H11.6855V15.2692H12.3005V14.6538Z" fill="#1A1A1A"/>
</svg>
